<?xml version="1.0" standalone="no"?>
<!DOCTYPE svg PUBLIC "-//W3C//DTD SVG 20010904//EN"
 "http://www.w3.org/TR/2001/REC-SVG-20010904/DTD/svg10.dtd">
<svg version="1.0" xmlns="http://www.w3.org/2000/svg"
 width="2048.000000pt" height="2048.000000pt" viewBox="0 0 2048.000000 2048.000000"
 preserveAspectRatio="xMidYMid meet">

<g transform="translate(0.000000,2048.000000) scale(0.100000,-0.100000)"
fill="#000000" stroke="none">
<path d="M9355 20204 c-74 -39 -95 -81 -95 -194 0 -80 0 -80 -26 -80 -27 0
-126 -14 -399 -55 -88 -13 -263 -38 -390 -55 -283 -38 -872 -137 -1135 -191
-107 -22 -294 -60 -415 -84 -591 -118 -1369 -325 -2015 -537 -1194 -391 -2339
-919 -3257 -1501 -176 -112 -431 -293 -486 -346 -56 -52 -64 -74 -70 -191 -3
-58 -13 -204 -22 -325 -23 -304 -17 -355 55 -412 56 -46 605 -182 677 -168 72
13 127 97 229 350 37 92 58 132 73 139 13 6 25 6 30 0 4 -5 -3 -92 -15 -194
-31 -250 -31 -300 1 -338 41 -49 91 -61 319 -82 225 -21 278 -26 651 -65 275
-29 713 -73 1088 -110 142 -14 274 -23 295 -19 52 9 115 47 150 91 38 49 85
145 152 308 59 147 73 167 88 139 5 -11 27 -116 47 -234 59 -342 42 -329 445
-342 360 -13 2788 -11 2949 1 137 11 174 26 225 94 30 40 87 175 140 335 21
61 42 115 48 118 13 8 21 -4 59 -96 181 -434 167 -420 421 -420 l155 0 7 -387
c12 -676 25 -2022 31 -3108 3 -577 10 -1651 15 -2385 6 -734 10 -1398 10
-1474 l0 -139 -112 6 c-62 3 -144 13 -183 22 -76 18 -126 16 -175 -8 -30 -16
-31 -15 -41 11 -6 15 -42 142 -80 282 -38 140 -85 311 -104 380 -19 69 -64
238 -100 375 -37 138 -96 358 -132 490 -36 132 -79 292 -95 355 -41 164 -57
211 -85 248 -44 59 -67 65 -293 73 -875 34 -1895 67 -2285 75 -298 7 -300 6
-327 -15 -36 -29 -52 -88 -39 -139 6 -20 28 -102 50 -182 76 -275 193 -705
243 -890 27 -102 71 -261 98 -355 26 -93 78 -280 115 -415 145 -531 188 -665
227 -715 11 -14 19 -27 17 -28 -2 -1 -24 -12 -49 -25 -98 -49 -664 -512 -778
-636 -56 -61 -72 -101 -72 -182 0 -84 27 -190 85 -328 l45 -109 -29 -46 c-98
-157 -117 -205 -86 -217 8 -4 15 -11 15 -17 0 -9 -87 -232 -278 -707 -25 -63
-58 -133 -73 -155 -35 -52 -173 -185 -192 -185 -18 0 -54 28 -139 106 -82 77
-163 122 -293 165 -84 28 -115 33 -195 34 -88 0 -99 -2 -150 -31 -45 -26 -60
-42 -85 -89 -28 -54 -30 -66 -29 -159 0 -83 6 -116 28 -181 33 -95 95 -215
148 -285 25 -34 34 -52 26 -55 -7 -2 -112 -23 -233 -45 -197 -37 -352 -68
-845 -171 -315 -66 -466 -122 -562 -208 -142 -128 -218 -301 -218 -499 0 -109
20 -188 58 -234 61 -72 270 -123 346 -83 35 18 70 20 63 3 -76 -185 -276 -698
-414 -1063 -133 -352 -185 -506 -178 -532 3 -12 22 -30 47 -42 64 -30 196 -64
232 -58 41 6 218 -31 406 -86 303 -88 449 -113 744 -127 449 -22 703 -59 1356
-200 385 -83 842 -161 1080 -185 147 -15 180 -20 224 -32 12 -3 16 -1 12 6 -7
10 26 16 62 12 6 -1 12 3 12 9 0 13 -11 13 -66 -1 -30 -8 -49 -8 -55 -2 -7 7
-5 12 6 17 11 4 14 2 10 -7 -4 -6 -1 -5 7 3 13 16 71 20 98 7 9 -4 25 -6 35
-5 40 6 25 -17 -16 -25 -29 -6 -38 -11 -28 -17 22 -14 3 -23 -21 -10 -12 6
-24 10 -26 7 -3 -3 29 -19 71 -36 55 -23 80 -29 89 -22 10 8 13 1 12 -32 l-1
-42 65 -32 c141 -69 216 -67 434 13 100 37 130 52 142 73 12 22 14 23 9 4 -4
-13 -2 -31 4 -40 9 -16 10 -16 11 -2 0 22 30 34 30 13 0 -20 22 -15 185 37 65
21 144 44 173 51 40 8 50 14 36 19 -11 3 -22 1 -26 -5 -4 -6 -5 11 -3 37 3 43
2 47 -13 35 -12 -10 -14 -10 -8 -1 4 8 2 13 -4 13 -6 0 -8 5 -4 12 5 8 0 9
-16 5 -16 -4 -23 -1 -27 13 -6 22 -27 28 -123 36 -59 5 -83 3 -106 -9 l-31
-16 10 39 c10 36 12 38 25 22 13 -16 22 -17 101 -6 194 28 360 9 640 -72 84
-24 175 -32 186 -15 3 5 -3 11 -12 14 -10 2 0 4 22 4 30 0 35 -2 20 -8 -17 -6
-15 -8 10 -8 17 -1 88 19 158 43 125 43 173 66 112 52 -24 -5 -26 -4 -12 4 9
6 26 8 37 5 11 -3 61 10 122 34 149 57 466 170 663 236 94 31 240 81 325 110
338 116 808 259 1020 311 246 60 600 75 890 36 80 -10 147 -15 150 -11 3 4 29
6 57 5 33 -2 50 1 46 7 -4 6 2 8 15 5 21 -6 124 21 138 35 4 4 13 7 21 7 7 0
60 22 116 49 56 26 134 58 172 70 39 12 79 26 90 31 11 5 37 14 58 20 20 6 35
16 32 21 -4 5 1 6 9 3 8 -3 58 8 113 25 54 16 141 40 193 51 52 12 122 28 156
36 33 8 73 15 90 15 27 2 28 2 4 7 -20 4 -15 8 30 18 l55 13 -72 -6 c-40 -3
-73 -3 -73 0 0 3 30 10 67 17 69 12 97 25 87 41 -3 5 -1 9 5 9 5 0 12 -4 15
-9 3 -4 23 -8 45 -8 22 0 38 3 36 7 -3 4 18 11 46 14 57 8 58 10 14 20 -23 5
-27 4 -15 -4 10 -8 11 -10 2 -8 -8 2 -12 8 -10 13 2 5 45 10 96 10 66 0 91 -3
88 -12 -3 -6 1 -14 9 -17 9 -3 12 1 10 15 -4 20 7 28 65 43 l25 7 -23 -14
c-12 -7 -19 -16 -16 -20 4 -4 -2 -7 -14 -7 -12 0 -22 -5 -22 -10 0 -7 22 -9
58 -6 55 5 58 4 77 -26 11 -17 45 -45 75 -64 47 -28 68 -34 140 -39 46 -4 88
-9 92 -11 9 -6 128 30 213 63 32 13 73 36 90 52 66 61 168 81 460 91 185 6
250 11 285 24 25 9 55 14 68 11 12 -3 52 4 88 15 37 11 80 20 97 20 31 0 117
35 129 54 4 6 30 6 75 -2 128 -21 287 -32 326 -23 20 5 37 7 37 4 0 -3 6 0 14
6 12 10 16 8 22 -11 4 -13 7 -29 5 -37 -1 -7 2 -10 8 -7 5 4 13 2 16 -4 13
-20 80 -56 140 -75 109 -34 190 -25 620 63 87 18 191 65 244 110 l34 29 81
-18 c142 -30 211 -33 301 -9 59 16 98 20 150 16 60 -4 64 -4 26 4 -24 5 -46
11 -48 14 -3 2 14 28 36 56 47 59 52 95 21 144 -10 18 -37 42 -60 55 -22 12
-40 25 -40 28 0 4 3 3 7 0 3 -4 15 12 26 36 28 62 34 203 13 301 -20 88 -30
110 -69 148 -15 15 -27 32 -27 38 0 5 -4 10 -10 10 -5 0 -10 -7 -10 -15 0 -20
-40 -28 -108 -21 -44 4 -51 3 -33 -4 14 -6 33 -12 43 -13 24 -4 36 -17 15 -17
-10 0 -17 -4 -17 -10 0 -5 -7 -7 -15 -3 -9 3 -15 2 -14 -3 3 -20 -1 -44 -8
-43 -23 4 -42 -3 -62 -22 -14 -13 -21 -16 -20 -8 1 8 -3 27 -10 44 -7 16 -13
45 -14 65 -1 19 -7 40 -13 45 -6 6 -23 57 -38 115 -15 58 -92 332 -171 610
-152 535 -175 619 -175 642 0 10 42 26 142 52 78 20 150 44 159 52 13 12 15
23 9 52 -4 20 -10 64 -14 97 -5 58 -5 59 8 25 36 -93 122 -334 180 -505 115
-339 232 -645 307 -800 49 -102 154 -251 237 -338 70 -73 197 -165 286 -209
123 -59 135 -51 95 60 -11 31 -74 212 -138 402 -65 190 -150 433 -188 540
-151 420 -188 523 -260 730 -41 118 -108 312 -150 430 -41 118 -130 377 -198
575 -68 198 -177 515 -243 705 -66 190 -127 373 -137 406 l-17 62 50 103 c67
138 225 481 323 701 247 555 492 1084 512 1102 12 12 33 45 46 73 14 29 31 53
39 53 8 0 57 -18 108 -40 117 -50 152 -51 193 -8 85 91 67 130 -117 243 l-43
26 7 56 c4 36 2 68 -6 94 -13 37 -12 41 50 161 76 149 216 397 277 493 60 92
122 164 172 199 38 27 50 29 178 36 193 11 280 40 428 140 190 129 335 300
468 550 191 359 284 772 248 1101 -23 213 -76 343 -186 455 -234 239 -594 231
-925 -20 -209 -159 -386 -375 -517 -634 -74 -147 -103 -224 -154 -422 -25 -95
-31 -142 -36 -270 -8 -227 24 -366 138 -609 78 -163 81 -199 32 -330 -39 -105
-165 -345 -268 -511 -112 -180 -124 -195 -155 -185 -33 11 -39 -7 155 495 24
63 56 149 71 190 14 41 44 105 66 141 63 107 64 160 2 221 -68 68 -207 91
-275 45 -56 -38 -79 -81 -79 -151 0 -44 -8 -82 -29 -136 -17 -41 -46 -120 -66
-175 -20 -55 -61 -158 -90 -230 -45 -110 -88 -230 -102 -283 -3 -15 -47 -13
-283 14 -69 8 -129 14 -134 14 -12 0 -1 39 49 170 176 460 232 610 270 715 73
203 113 295 146 332 38 44 68 108 69 144 0 15 -15 49 -32 75 -60 90 -208 143
-316 115 -69 -19 -98 -54 -122 -145 -11 -43 -18 -87 -14 -98 3 -12 -4 -46 -19
-82 -38 -92 -116 -295 -212 -551 -74 -197 -253 -654 -260 -663 -1 -1 -23 2
-48 7 -25 6 -123 20 -218 32 -164 20 -174 22 -193 47 -71 92 -201 207 -336
296 l-56 36 -17 123 c-44 323 -129 592 -289 911 -161 321 -421 616 -706 800
-40 26 -72 51 -70 56 6 17 113 169 119 170 3 0 28 -33 54 -72 88 -133 241
-322 326 -402 168 -159 295 -250 473 -341 217 -110 385 -157 561 -157 195 -1
386 53 820 231 162 66 294 111 390 132 72 15 321 16 385 1 24 -6 46 -9 48 -7
12 11 -133 89 -212 114 -70 23 -235 61 -262 61 -2 0 -4 4 -4 8 0 5 36 27 81
50 91 48 308 188 419 270 93 68 350 324 454 452 43 52 171 234 284 405 216
326 299 427 412 505 207 141 386 167 628 91 51 -16 92 -26 92 -22 0 13 -40 70
-99 141 -95 115 -258 254 -416 355 -70 45 -58 56 32 30 327 -92 592 -280 705
-500 67 -131 87 -203 113 -417 4 -27 9 -48 13 -48 24 0 128 218 181 377 116
350 117 755 1 1140 -106 358 -305 691 -556 932 -60 58 -103 106 -97 108 27 9
302 -121 441 -209 l93 -58 -23 42 c-13 23 -68 87 -123 143 -160 161 -321 276
-528 375 -217 105 -418 159 -727 197 -282 34 -834 17 -1183 -36 -65 -9 -117
-14 -117 -10 0 4 12 15 28 25 94 61 292 217 316 248 29 39 29 60 -1 34 -45
-39 -235 -115 -395 -158 -213 -56 -452 -92 -653 -96 -99 -2 -172 -1 -162 2 15
5 13 11 -17 47 -18 23 -43 60 -55 82 -46 88 -187 309 -203 319 -33 20 -41 -7
-49 -151 -5 -76 -11 -166 -14 -199 l-6 -62 -192 1 c-243 1 -364 -16 -632 -90
-239 -65 -480 -183 -709 -347 -43 -31 -80 -55 -82 -53 -3 2 14 55 37 118 67
188 129 386 129 415 0 30 -22 9 -111 -103 -143 -181 -244 -280 -484 -474 -315
-255 -435 -377 -561 -572 -195 -300 -298 -692 -281 -1066 6 -133 41 -452 73
-661 60 -400 208 -659 477 -837 102 -67 237 -140 344 -185 l62 -26 -16 -34
c-9 -18 -17 -34 -17 -35 -1 -1 -67 18 -146 43 -415 128 -630 160 -1009 151
-238 -6 -359 -20 -531 -62 -448 -109 -777 -304 -1004 -596 -49 -63 -107 -140
-129 -172 -35 -49 -58 -67 -156 -125 -201 -118 -281 -213 -280 -332 0 -66 16
-114 54 -164 l28 -36 -96 -143 c-132 -196 -210 -290 -340 -409 -180 -166 -220
-208 -304 -314 -94 -119 -138 -189 -192 -307 -22 -48 -42 -87 -45 -87 -3 0 -5
165 -5 368 -1 405 -7 1049 -21 2342 -5 470 -12 1222 -15 1670 -3 448 -8 944
-11 1101 l-7 286 99 7 c55 3 250 15 434 26 499 30 1071 67 1570 100 245 16
490 32 545 36 128 7 167 18 211 56 60 53 86 128 119 343 18 121 35 195 43 195
4 0 38 -55 76 -123 146 -258 188 -319 252 -362 34 -23 46 -25 151 -25 147 0
683 48 747 67 17 5 18 6 3 15 -10 5 -119 -1 -297 -17 -336 -30 -521 -36 -567
-17 -51 22 -153 165 -268 377 -72 132 -93 174 -99 201 -4 14 -11 22 -15 19 -5
-3 -65 -7 -133 -10 -68 -2 -157 -8 -198 -12 -41 -4 -78 -6 -81 -5 -4 1 -62 -5
-130 -13 -68 -7 -173 -16 -234 -20 -60 -3 -141 -8 -180 -10 -38 -3 -160 -9
-270 -15 -110 -6 -258 -15 -330 -20 -71 -5 -213 -12 -315 -15 -102 -3 -239
-10 -305 -15 -165 -14 -480 -31 -657 -36 -114 -3 -148 -1 -148 9 0 8 -4 7 -10
-3 -7 -10 -10 27 -10 114 0 112 2 127 16 122 8 -3 13 -2 9 3 -3 5 16 16 42 25
172 54 390 119 403 119 8 0 17 3 20 6 7 9 139 55 375 131 116 38 314 103 440
145 l230 78 910 -6 c633 -4 1083 -12 1480 -26 630 -23 645 -23 718 33 86 65
109 134 183 531 22 118 55 248 66 263 6 6 14 12 19 12 12 0 45 -67 59 -120 12
-49 72 -243 127 -415 62 -191 96 -243 179 -275 46 -17 117 -26 363 -45 928
-72 1485 -122 1946 -176 239 -27 447 -30 501 -6 43 20 92 83 113 148 33 103
66 478 46 525 -4 11 -10 28 -12 38 -2 11 -5 21 -7 23 -5 5 -15 -93 -25 -252
-6 -77 -19 -182 -30 -234 -32 -148 -69 -203 -142 -215 -33 -5 -436 28 -879 74
-201 20 -461 42 -1327 110 -375 29 -511 43 -536 55 -48 23 -97 112 -151 274
-106 316 -145 431 -160 458 -16 33 -67 93 -77 93 -24 0 -75 -177 -154 -535
-39 -176 -78 -271 -126 -306 -45 -32 -121 -37 -399 -28 -140 5 -412 13 -605
20 -192 6 -921 15 -1620 19 -906 5 -1283 11 -1316 19 -53 14 -111 58 -145 112
-27 44 -85 215 -146 429 -63 226 -77 251 -113 197 -8 -13 -52 -126 -99 -253
-124 -340 -153 -391 -249 -438 -44 -22 -74 -27 -197 -35 -235 -16 -456 -30
-760 -46 -1111 -61 -1955 -121 -2679 -190 -301 -29 -376 -18 -432 63 -54 78
-111 253 -169 522 -23 109 -52 192 -69 198 -8 3 -10 -4 -6 -21 5 -20 2 -27
-14 -32 -11 -3 -23 -15 -26 -26 -4 -10 -11 -19 -16 -19 -5 0 -9 -9 -9 -20 0
-12 -6 -33 -14 -48 -8 -15 -51 -135 -96 -267 -45 -132 -98 -271 -118 -309 -58
-111 -79 -120 -397 -156 -165 -19 -268 -32 -725 -90 -85 -11 -166 -22 -180
-25 -14 -3 -187 -25 -385 -50 -457 -58 -1152 -158 -1318 -190 -219 -43 -308
-32 -346 44 -28 54 -49 194 -57 373 -4 81 -11 148 -16 148 -4 0 -8 -2 -8 -4 0
-18 -80 -319 -111 -420 -41 -131 -81 -208 -135 -258 -32 -30 -164 -118 -176
-118 -12 0 -10 80 7 300 25 328 35 424 47 448 31 62 549 408 958 640 567 322
1122 591 1726 838 762 310 1742 618 2614 820 286 66 1046 222 1215 249 49 8
139 24 198 35 249 45 978 152 1021 149 6 0 2 -5 -9 -10 -28 -13 6 -8 175 24
218 42 400 53 635 38 110 -6 310 -16 445 -21 377 -14 857 -55 1295 -110 1223
-154 1869 -273 2865 -524 664 -168 1365 -393 1930 -618 69 -27 166 -65 215
-83 406 -151 1296 -571 1710 -807 183 -104 217 -127 212 -142 -3 -7 6 -140 19
-297 13 -156 24 -301 24 -323 0 -38 -1 -38 -31 -32 -17 3 -81 27 -143 53 -184
77 -189 85 -252 448 -39 224 -49 264 -64 249 -10 -10 -8 -24 41 -339 17 -110
38 -217 46 -238 20 -50 77 -97 157 -130 124 -51 186 -80 186 -89 0 -14 -102
-47 -285 -92 -441 -107 -554 -129 -587 -117 -21 8 -67 106 -94 204 -10 34 -22
57 -30 57 -17 0 -17 1 0 -82 17 -80 56 -166 90 -197 23 -22 30 -23 93 -16 141
14 723 149 848 196 97 36 101 66 60 455 -13 132 -25 259 -27 284 -3 44 -5 46
-73 91 -169 111 -718 400 -1050 551 -509 232 -764 339 -1225 513 -1123 425
-2336 733 -3775 959 -644 102 -1801 216 -2537 252 -92 4 -138 10 -138 18 0 6
-5 51 -11 100 -12 97 -27 129 -70 152 -37 19 -126 18 -164 -2z m143 -146 l3
-118 -58 -2 c-85 -3 -116 1 -125 15 -14 22 -9 137 7 153 8 8 12 20 9 27 -8 21
56 46 111 44 l50 -2 3 -117z m421 -2106 c-5 -2 -9 -10 -9 -18 0 -9 4 -13 9
-10 9 6 29 -49 56 -154 9 -36 28 -101 42 -145 14 -44 25 -90 25 -102 0 -13 5
-23 10 -23 5 0 7 -4 3 -10 -3 -5 -12 -7 -20 -3 -9 3 -15 -1 -15 -10 0 -20 -28
-62 -106 -157 -33 -41 -76 -97 -94 -125 -19 -27 -39 -55 -45 -62 -5 -6 -27
-36 -48 -67 -21 -31 -43 -54 -48 -51 -5 3 -6 -1 -3 -10 5 -11 2 -14 -12 -8
-11 4 -15 3 -11 -4 11 -17 -3 -43 -22 -43 -13 0 -13 2 -2 9 9 6 10 11 2 15 -7
5 -11 62 -11 172 l0 165 39 47 c63 77 111 183 181 397 23 72 44 137 47 145 3
8 7 22 8 30 1 8 5 26 10 40 7 23 8 24 15 5 4 -11 3 -21 -1 -23z m-4670 -244
c1 -5 -3 -8 -7 -8 -4 0 -8 12 -9 28 -1 23 -1 24 7 7 5 -11 9 -23 9 -27z m-5
-33 c-4 -8 -8 -15 -10 -15 -2 0 -4 7 -4 15 0 8 4 15 10 15 5 0 7 -7 4 -15z
m23 -37 c-3 -8 -6 -5 -6 6 -1 11 2 17 5 13 3 -3 4 -12 1 -19z m4810 -235 c-4
-3 -2 -13 5 -20 9 -11 9 -16 -1 -23 -8 -4 -10 -13 -7 -19 5 -8 12 -7 22 3 8 9
21 13 29 10 16 -7 29 -34 15 -34 -5 0 -7 -7 -3 -16 5 -13 7 -13 15 -2 7 11 11
10 21 -2 6 -9 27 -22 45 -29 31 -13 31 -15 14 -27 -10 -7 -25 -14 -32 -16 -7
-2 -21 -10 -30 -18 -10 -8 -28 -23 -41 -33 -29 -22 -301 -198 -329 -213 -11
-6 -27 -20 -35 -30 -8 -11 -14 -14 -15 -6 0 6 -4 12 -10 12 -5 0 -7 -8 -3 -17
5 -14 3 -15 -7 -6 -9 9 -2 25 36 76 27 36 73 100 102 141 30 42 58 73 63 70 5
-3 9 3 9 14 0 22 33 56 44 45 4 -5 7 -1 6 7 -5 30 0 41 18 38 13 -2 16 3 14
22 -3 24 -2 24 14 5 12 -16 14 -16 10 -3 -3 9 0 18 6 20 6 2 12 15 14 29 3 30
3 29 11 29 3 0 3 -3 0 -7z m33 -26 c0 -5 -4 -5 -10 -2 -5 3 -10 14 -10 23 0
15 2 15 10 2 5 -8 10 -19 10 -23z m-5003 -19 c-3 -8 -6 -5 -6 6 -1 11 2 17 5
13 3 -3 4 -12 1 -19z m256 -118 c3 -11 1 -18 -4 -14 -5 3 -9 12 -9 20 0 20 7
17 13 -6z m3926 -136 c-1 -78 1 -146 4 -151 3 -5 2 -15 -3 -22 -6 -11 -16 -5
-42 24 -18 22 -32 45 -32 52 1 7 -2 11 -6 8 -4 -3 -61 46 -125 108 l-117 112
143 5 c79 3 152 5 162 5 17 1 18 -10 16 -141z m1170 121 c0 -5 -97 -58 -214
-116 -118 -58 -212 -102 -209 -97 8 12 -10 10 -24 -4 -9 -9 -12 -9 -12 0 0 6
10 18 23 25 12 8 75 48 139 88 136 86 162 100 203 110 42 10 95 7 94 -6z m429
-1 c-4 -3 -42 -8 -85 -9 -193 -8 -195 -8 -179 -17 9 -5 14 -13 12 -17 -3 -4 9
-6 27 -3 25 3 29 1 17 -8 -12 -8 -6 -9 25 -5 39 5 -149 -66 -325 -124 -47 -16
-150 -52 -228 -80 -144 -51 -191 -63 -139 -35 15 8 27 19 27 25 0 6 5 7 10 4
6 -4 17 -2 24 5 27 22 502 255 531 260 46 8 291 12 283 4z m-2032 -30 c21 -15
67 -53 101 -84 34 -32 102 -91 152 -131 50 -39 91 -74 91 -76 0 -2 -4 -1 -10
2 -5 3 -10 1 -10 -4 0 -6 5 -11 12 -11 6 0 9 -3 6 -6 -4 -3 -27 5 -52 19 -25
13 -42 27 -38 32 4 4 0 6 -8 4 -8 -1 -46 12 -84 29 -38 18 -70 32 -72 32 -2 0
-36 16 -76 36 -40 19 -131 60 -203 90 -71 31 -134 59 -139 64 -14 14 77 26
205 29 78 1 90 -2 125 -25z m-3759 10 c-3 -3 -12 -4 -19 -1 -8 3 -5 6 6 6 11
1 17 -2 13 -5z m280 -16 c-3 -8 -6 -5 -6 6 -1 11 2 17 5 13 3 -3 4 -12 1 -19z
m3075 -100 c134 -56 321 -129 416 -162 160 -56 195 -75 160 -84 -10 -3 -10 -2
0 5 8 6 -10 14 -55 23 -38 8 -72 13 -77 12 -5 -2 -16 0 -25 4 -9 4 -27 9 -41
11 -34 6 -410 111 -437 123 -13 5 -121 35 -240 65 -276 71 -290 81 -136 94
187 17 169 21 435 -91z m-3391 8 c5 -6 9 -21 8 -35 l0 -26 -11 25 c-5 14 -13
32 -18 40 -4 8 -5 31 -1 50 l6 35 3 -40 c2 -22 8 -44 13 -49z m5716 78 c-3 -3
-12 -4 -19 -1 -8 3 -5 6 6 6 11 1 17 -2 13 -5z m-5750 -36 c-3 -8 -6 -5 -6 6
-1 11 2 17 5 13 3 -3 4 -12 1 -19z m419 -43 c20 -33 43 -53 82 -72 53 -26 54
-26 220 -20 92 4 262 16 377 27 116 11 284 27 375 35 242 22 966 75 1029 75
35 0 143 -23 300 -65 412 -108 1014 -253 1262 -304 166 -34 189 -42 209 -67
14 -18 14 -18 -4 -4 -19 15 -19 14 -3 -16 16 -32 21 -130 11 -205 l-5 -37
-112 -6 c-330 -20 -443 -29 -466 -39 -14 -5 -29 -10 -33 -9 -4 1 -10 -10 -14
-26 -25 -110 -148 -457 -182 -512 -32 -51 -67 -81 -113 -94 -129 -39 -2554
-43 -3162 -6 -113 7 -178 15 -197 25 -50 26 -61 60 -105 323 -14 84 -32 164
-41 177 -9 13 -13 29 -9 35 3 5 0 13 -9 16 -21 8 -12 80 15 118 l22 31 -36
-34 c-40 -38 -36 -38 -232 -7 -55 8 -120 18 -145 21 -80 9 -179 28 -178 34 3
31 -4 41 -32 41 -17 0 -30 -5 -31 -12 0 -10 -2 -10 -6 0 -7 17 -23 15 -23 -4
0 -13 7 -15 34 -10 26 5 35 3 40 -10 6 -14 1 -16 -31 -10 -46 7 -193 23 -283
31 -36 2 -110 11 -165 19 -55 8 -161 22 -235 31 -74 8 -209 25 -300 36 -91 11
-216 27 -279 35 -114 13 -157 28 -110 38 91 18 502 73 939 125 140 17 286 36
323 41 45 7 74 7 85 0 14 -7 14 -9 2 -10 -13 0 -13 -1 0 -10 11 -7 5 -8 -20
-4 -19 3 -40 7 -45 9 -6 1 -19 -3 -30 -11 -22 -16 -75 -19 -75 -4 0 6 -9 10
-21 10 -11 0 -18 -4 -15 -9 3 -4 -7 -6 -22 -5 -15 2 -21 1 -14 -2 10 -5 9 -9
-5 -19 -15 -12 -8 -13 54 -10 72 4 113 17 113 36 0 6 8 6 21 -1 11 -7 27 -9
34 -6 8 3 21 -2 30 -10 12 -13 19 -14 30 -4 12 10 18 10 30 0 11 -10 18 -9 30
4 9 9 12 16 6 16 -23 0 3 30 28 31 25 1 25 2 -4 9 -45 11 -22 15 213 44 205
25 332 51 332 67 0 5 7 5 17 2 10 -4 14 -2 9 5 -3 6 -1 14 6 19 16 10 42 14
33 5 -4 -4 -12 -7 -18 -7 -7 0 -12 -10 -11 -21 1 -16 -3 -20 -17 -17 -33 9
-20 -14 14 -24 32 -9 32 -9 10 -21 -19 -11 -23 -10 -23 2 0 7 -7 17 -16 20
-24 9 -64 7 -64 -3 0 -5 -10 -12 -22 -14 -16 -3 -14 -4 5 -2 17 1 27 -3 27
-12 0 -8 -4 -12 -9 -9 -5 4 -12 0 -15 -6 -5 -10 -7 -10 -12 1 -5 10 -8 10 -14
1 -8 -14 -214 -19 -265 -7 -23 6 -25 5 -10 -3 16 -7 11 -9 -25 -8 -71 2 -110
-1 -110 -9 0 -5 70 -7 156 -5 107 2 154 0 149 -8 -3 -5 0 -10 9 -10 8 0 17 6
19 13 3 7 6 5 6 -5 1 -10 8 -18 17 -18 14 0 14 3 4 15 -11 13 -8 15 13 15 14
0 34 3 44 7 16 6 16 5 5 -10 -8 -8 -20 -13 -28 -10 -8 3 -14 1 -14 -5 0 -5 8
-13 17 -16 21 -8 80 52 75 76 -2 8 4 18 13 21 18 7 21 -9 3 -16 -10 -4 -9 -8
2 -16 11 -8 12 -11 2 -11 -8 0 -13 -10 -12 -22 4 -43 1 -50 -20 -45 -11 3 -23
1 -26 -4 -3 -5 5 -9 18 -9 13 0 32 -2 43 -5 25 -6 60 19 49 36 -5 9 -11 7 -20
-6 -19 -26 -30 -10 -14 20 9 17 21 24 37 23 19 -2 23 -8 23 -34 0 -35 6 -45
24 -38 8 3 11 15 8 30 -5 27 5 30 32 11 25 -19 6 -55 -31 -59 -22 -2 -28 -9
-30 -28 -1 -14 0 -18 3 -7 5 15 43 24 77 18 5 -1 6 9 3 21 -3 13 -3 17 0 11 3
-7 10 -13 15 -13 6 0 5 9 -1 21 -13 23 -6 54 11 44 6 -4 8 -13 5 -21 -3 -8 1
-17 9 -20 20 -8 19 -32 -1 -30 -9 0 -23 -10 -32 -24 -10 -13 -12 -21 -4 -16 7
4 12 1 12 -8 0 -19 -26 -21 -34 -3 -4 6 -4 1 -2 -11 6 -31 -2 -52 -20 -52 -8
0 -14 -5 -14 -11 0 -5 6 -7 13 -3 11 7 -8 -19 -40 -54 -7 -7 -13 -20 -13 -28
0 -8 -4 -12 -10 -9 -5 3 -10 1 -10 -6 0 -7 -10 -23 -22 -36 -12 -13 -17 -23
-12 -23 5 1 26 23 47 49 21 27 46 57 55 68 10 10 24 28 32 40 43 63 197 260
264 339 42 49 84 106 93 127 9 20 20 37 23 37 4 0 20 -20 36 -45z m-359 -17
c-3 -8 -6 -5 -6 6 -1 11 2 17 5 13 3 -3 4 -12 1 -19z m-66 3 c6 10 9 8 9 -7 0
-32 -25 -37 -26 -5 -1 14 1 20 3 12 5 -11 7 -11 14 0z m111 -48 c13 -16 1 -17
-16 -1 -7 7 -10 23 -7 37 l5 26 4 -25 c2 -14 9 -31 14 -37z m108 -8 c0 -8 -2
-15 -4 -15 -2 0 -6 7 -10 15 -3 8 -1 15 4 15 6 0 10 -7 10 -15z m-260 -5 c0
-5 -4 -10 -10 -10 -5 0 -10 5 -10 10 0 6 5 10 10 10 6 0 10 -4 10 -10z m65 0
c3 -5 1 -10 -4 -10 -6 0 -11 5 -11 10 0 6 2 10 4 10 3 0 8 -4 11 -10z m-35
-10 c0 -5 -4 -10 -10 -10 -5 0 -10 5 -10 10 0 6 5 10 10 10 6 0 10 -4 10 -10z
m4980 -4 c0 -2 -8 -10 -17 -17 -16 -13 -17 -12 -4 4 13 16 21 21 21 13z
m-4980 -35 c0 -5 -7 -11 -14 -14 -10 -4 -13 -1 -9 9 6 15 23 19 23 5z m46 -38
c-10 -10 -19 5 -10 18 6 11 8 11 12 0 2 -7 1 -15 -2 -18z m-3545 -128 c27
-211 89 -295 216 -295 42 0 187 20 266 36 l28 6 -21 -34 c-11 -18 -45 -98 -76
-176 -53 -135 -97 -211 -136 -235 -16 -11 -51 -4 -368 69 -58 14 -129 33 -158
44 -29 11 -63 20 -76 20 -30 0 -88 53 -81 73 4 8 28 24 56 37 27 13 49 27 49
30 0 4 14 13 30 20 48 20 135 122 160 187 13 32 39 124 59 205 20 83 37 136
39 120 1 -15 7 -63 13 -107z m3599 126 c0 -6 -4 -13 -10 -16 -5 -3 -10 1 -10
9 0 9 5 16 10 16 6 0 10 -4 10 -9z m30 -20 c0 -9 6 -23 13 -30 10 -11 9 -13
-5 -8 -12 4 -21 -4 -33 -29 -20 -42 -23 -43 -20 -1 2 21 8 33 19 35 14 3 16
10 11 34 -5 21 -4 28 4 24 6 -4 11 -15 11 -25z m50 9 c0 -5 -5 -10 -11 -10 -5
0 -7 5 -4 10 3 6 8 10 11 10 2 0 4 -4 4 -10z m-179 -32 c-24 -8 -45 -2 -36 11
2 5 17 6 32 3 27 -5 27 -5 4 -14z m59 -9 c0 -17 -4 -28 -10 -24 -5 3 -8 16 -6
28 6 28 5 27 11 27 3 0 5 -14 5 -31z m-765 -29 c-11 -5 -27 -9 -35 -9 -13 -1
-13 0 0 9 8 5 24 9 35 9 l20 0 -20 -9z m839 -16 c4 -10 1 -14 -6 -12 -15 5
-23 28 -10 28 5 0 13 -7 16 -16z m10774 -84 c27 -47 67 -114 88 -150 22 -36
52 -86 68 -112 l27 -48 -27 0 c-16 0 -79 5 -141 11 -85 9 -113 15 -113 26 0 8
4 44 9 81 8 52 19 217 21 287 0 16 16 -6 68 -95z m-11598 80 c0 -12 -44 -24
-62 -17 -7 3 -3 6 10 6 12 1 22 6 22 11 0 6 7 10 15 10 8 0 15 -4 15 -10z
m7877 -846 c-3 -3 -12 -4 -19 -1 -8 3 -5 6 6 6 11 1 17 -2 13 -5z m-162 -24
c-3 -5 -12 -7 -20 -3 -21 7 -19 13 6 13 11 0 18 -4 14 -10z m115 0 c-18 -11
-80 -13 -80 -2 0 4 21 8 48 9 33 2 43 -1 32 -7z m113 3 c-13 -2 -35 -2 -50 0
-16 2 -5 4 22 4 28 0 40 -2 28 -4z m-300 -20 c-7 -2 -19 -2 -25 0 -7 3 -2 5
12 5 14 0 19 -2 13 -5z m-115 -10 c-16 -2 -40 -2 -55 0 -16 2 -3 4 27 4 30 0
43 -2 28 -4z m-231 -9 c-3 -3 -12 -4 -19 -1 -8 3 -5 6 6 6 11 1 17 -2 13 -5z
m46 -1 c-7 -2 -19 -2 -25 0 -7 3 -2 5 12 5 14 0 19 -2 13 -5z m-296 -19 c-3
-3 -12 -4 -19 -1 -8 3 -5 6 6 6 11 1 17 -2 13 -5z m50 0 c-3 -3 -12 -4 -19 -1
-8 3 -5 6 6 6 11 1 17 -2 13 -5z m-7280 -90 c-3 -3 -12 -4 -19 -1 -8 3 -5 6 6
6 11 1 17 -2 13 -5z m5783 -4 c-8 -5 -35 -9 -60 -8 l-45 1 45 7 c73 11 78 11
60 0z m108 3 c-15 -2 -42 -2 -60 0 -18 2 -6 4 27 4 33 0 48 -2 33 -4z m-761
-29 c-3 -3 -12 -4 -19 -1 -8 3 -5 6 6 6 11 1 17 -2 13 -5z m7404 -405 c-24
-11 -54 -22 -67 -25 -13 -3 -21 -10 -18 -15 3 -5 -2 -6 -10 -3 -8 3 -24 1 -35
-6 -12 -6 -21 -7 -21 -2 0 5 39 23 88 40 98 35 129 40 63 11z m2329 -2418
c126 -39 233 -131 293 -252 92 -187 118 -440 71 -709 -42 -243 -174 -596 -280
-750 -47 -69 -138 -194 -150 -206 -6 -7 -21 -25 -35 -40 -50 -60 -208 -193
-275 -232 -110 -65 -178 -83 -344 -91 -80 -4 -158 -13 -173 -20 -44 -18 -114
-79 -161 -140 -39 -52 -166 -265 -166 -279 0 -8 -63 -105 -110 -169 -16 -23
-30 -46 -30 -52 0 -5 -9 -26 -20 -48 -34 -66 -73 -157 -73 -170 0 -17 -2 -17
-53 13 -24 14 -44 31 -44 38 0 6 11 28 25 48 36 53 149 247 203 348 25 47 70
128 100 180 79 137 108 267 81 363 -6 22 -9 41 -7 43 2 2 35 -25 72 -59 63
-59 66 -65 57 -90 -14 -37 -7 -34 18 9 25 43 18 62 -37 99 -73 49 -87 61 -124
100 -45 48 -79 117 -124 250 -67 202 -67 442 1 691 47 170 63 212 146 376 87
170 189 311 323 443 187 185 342 273 581 329 40 10 171 -4 235 -23z m-4834
-238 c-6 -6 -36 9 -36 18 0 5 9 4 20 -3 10 -7 18 -14 16 -15z m-56 -31 c36
-15 93 -42 128 -60 68 -35 70 -43 20 -89 l-23 -22 -45 28 c-25 15 -70 37 -100
50 -65 27 -100 48 -100 60 0 11 40 61 48 61 4 0 36 -13 72 -28z m120 8 c19
-11 32 -19 29 -20 -11 0 -79 30 -79 35 0 9 14 5 50 -15z m-117 -167 c53 -26
97 -50 97 -55 0 -5 -17 0 -37 10 -21 10 -47 17 -58 15 -16 -3 -17 -2 -6 6 11
7 6 13 -25 27 -21 9 -43 18 -49 19 -5 2 -26 10 -45 19 -34 16 -34 16 -5 11 17
-3 74 -27 128 -52z m-4556 -29 c23 -3 44 -11 46 -18 3 -7 6 -276 7 -597 1
-321 4 -892 6 -1269 2 -377 3 -741 2 -810 -1 -69 -1 -156 0 -195 2 -113 14
-855 15 -1038 l2 -167 -68 -63 c-37 -34 -78 -77 -92 -96 -16 -23 -26 -30 -29
-20 -8 28 -26 1617 -32 2941 l-7 1347 54 -5 c30 -3 73 -7 96 -10z m3210 -418
c229 -30 282 -41 571 -112 287 -70 744 -229 763 -264 19 -35 142 -319 207
-475 160 -388 227 -691 241 -1087 4 -120 10 -221 14 -224 4 -4 39 20 79 53
230 188 424 231 667 148 99 -33 242 -139 225 -166 -4 -8 -3 -9 4 -5 7 4 12 2
12 -3 0 -10 -22 -15 -57 -14 -17 1 -16 -2 3 -21 14 -15 14 -16 -1 -16 -10 0
-13 -5 -9 -12 4 -7 3 -10 -1 -5 -11 10 -46 -23 -38 -36 3 -5 2 -7 -4 -4 -5 3
-20 -7 -32 -24 -12 -16 -26 -27 -32 -24 -5 4 -9 0 -9 -7 -1 -18 -77 -71 -92
-62 -7 4 -8 3 -4 -4 3 -6 -2 -16 -13 -21 -26 -14 -40 -14 -21 0 13 9 13 10 0
6 -8 -2 -15 -9 -15 -15 0 -7 -15 -21 -33 -32 -19 -12 -31 -16 -27 -10 4 7 -2
6 -14 -2 -12 -7 -21 -16 -21 -20 0 -4 -10 -12 -21 -19 -15 -7 -19 -8 -15 0 4
7 1 9 -8 5 -9 -3 -14 -10 -13 -15 4 -16 -179 -113 -195 -103 -6 4 -8 3 -5 -3
8 -14 -59 -47 -75 -37 -6 4 -8 3 -5 -3 8 -13 -339 -167 -354 -157 -8 4 -9 3
-5 -4 4 -7 5 -12 3 -12 -2 0 -73 -25 -158 -56 -251 -92 -726 -250 -989 -329
-227 -68 -306 -90 -590 -166 -58 -15 -139 -36 -180 -47 -41 -11 -176 -44 -300
-72 -124 -28 -324 -75 -445 -104 -121 -30 -308 -75 -415 -101 -107 -25 -239
-60 -292 -76 -60 -19 -106 -28 -119 -24 -15 5 -19 4 -15 -4 4 -6 2 -11 -3 -11
-6 0 -11 4 -11 9 0 5 -24 15 -52 21 -29 7 -57 16 -63 20 -5 4 -20 6 -32 4 -12
-2 -28 2 -35 9 -7 6 -24 13 -38 14 -25 2 -25 2 3 -11 15 -7 24 -15 21 -19 -8
-7 -182 83 -274 142 -244 155 -450 335 -560 488 -81 113 -154 265 -187 390
-35 130 -37 344 -5 465 68 255 205 467 460 710 59 57 150 146 203 200 117 117
124 117 164 17 24 -62 34 -75 79 -105 72 -47 151 -62 210 -40 41 16 95 65 121
110 9 16 29 15 305 -24 162 -22 349 -50 415 -61 115 -19 120 -20 133 -2 7 10
9 19 5 20 -54 16 -628 102 -1052 158 -145 19 -265 36 -268 39 -2 2 33 62 79
133 46 70 102 156 124 190 37 60 41 63 79 63 48 0 172 29 274 64 151 52 227
68 303 64 63 -3 81 -8 133 -40 33 -21 107 -78 165 -128 57 -49 131 -104 163
-121 51 -27 67 -31 117 -27 196 14 281 236 172 453 -69 139 -212 268 -382 346
-60 28 -166 59 -190 56 -8 -1 -53 2 -100 7 -86 8 -145 2 -267 -27 -35 -9 -63
-12 -63 -8 0 18 104 143 126 151 62 24 334 67 559 90 50 4 252 7 450 5 320 -2
381 -6 552 -29z m4162 -572 c32 -9 67 -29 89 -50 l37 -35 -34 16 c-41 20 -81
26 -78 12 1 -6 14 -22 29 -34 31 -27 43 -57 31 -75 -8 -14 -10 -19 -12 -42 -1
-11 -17 -7 -73 14 -40 16 -103 36 -140 46 -54 15 -68 22 -68 37 0 23 64 87 88
88 11 0 12 2 5 6 -18 7 -16 21 5 26 34 9 69 7 121 -9z m640 -584 c66 -33 97
-89 72 -129 -8 -12 -16 -11 -53 6 -23 11 -81 30 -128 43 -47 13 -89 27 -93 30
-4 4 8 21 28 39 30 26 44 31 86 31 30 0 65 -8 88 -20z m-124 -112 c22 -6 61
-21 88 -35 46 -23 48 -26 42 -56 -4 -18 -8 -33 -9 -34 -2 -2 -29 8 -62 21 -32
13 -83 29 -111 36 -50 11 -53 14 -53 44 0 50 0 50 105 24z m-10925 -333 c245
-8 569 -19 720 -25 1043 -37 970 -31 1006 -85 9 -15 30 -77 45 -138 15 -62 68
-265 119 -452 51 -187 103 -387 117 -445 13 -58 48 -190 78 -295 29 -104 88
-314 130 -465 42 -151 85 -304 95 -340 10 -36 32 -119 49 -185 17 -66 42 -156
56 -200 41 -127 83 -295 89 -357 l6 -58 -35 0 c-38 0 -59 25 -34 41 12 7 12 9
0 9 -7 0 -11 6 -8 13 3 7 -4 30 -14 52 -10 21 -40 111 -65 199 -26 89 -51 169
-56 178 -4 10 -19 59 -33 110 -13 51 -31 120 -40 153 -9 33 -44 164 -76 290
-60 229 -142 523 -239 855 -28 96 -68 243 -90 325 -35 136 -134 499 -159 584
-6 19 -21 49 -33 67 -26 38 -37 40 -258 49 -371 13 -946 36 -1145 45 -121 5
-478 17 -792 27 -434 13 -573 20 -573 29 0 7 8 20 17 30 16 16 43 17 348 10
181 -3 530 -13 775 -21z m9365 -475 c22 -6 11 -8 -45 -9 -41 -1 -82 -5 -90
-11 -14 -8 -29 3 -30 23 0 9 125 7 165 -3z m237 -18 c11 -11 -20 -45 -36 -39
-6 2 -35 10 -63 17 -34 9 -53 19 -53 28 0 12 13 14 72 9 39 -3 75 -10 80 -15z
m120 -52 c60 -23 124 -70 96 -70 -19 0 -159 49 -172 61 -9 8 0 29 14 29 5 0
33 -9 62 -20z m528 5 c91 -8 174 -15 186 -15 20 0 21 -3 11 -40 -10 -35 -15
-40 -39 -40 -40 0 -94 -25 -107 -48 -20 -38 -24 -97 -8 -134 13 -31 27 -42 89
-71 40 -19 81 -37 90 -40 15 -5 13 -15 -16 -99 -18 -51 -48 -124 -68 -162
l-35 -70 -74 -2 c-63 -2 -143 7 -391 43 -21 3 -38 7 -38 9 0 7 49 134 59 153
10 18 14 18 63 5 29 -7 81 -14 115 -14 54 0 66 3 89 27 35 35 64 99 64 143 0
59 -29 92 -126 143 -49 26 -95 50 -102 55 -20 13 33 172 56 172 9 0 91 -7 182
-15z m-740 -32 c41 -8 113 -30 160 -48 128 -50 402 -184 395 -195 -3 -5 0 -12
6 -16 8 -4 9 -3 5 4 -12 20 8 13 39 -14 29 -24 29 -24 3 -8 -16 9 -28 12 -28
6 0 -5 8 -13 17 -16 12 -5 14 -9 5 -18 -7 -7 -12 -17 -12 -22 0 -6 7 -3 14 7
13 16 15 16 30 2 13 -13 13 -19 3 -30 -6 -7 -16 -10 -22 -7 -16 10 -35 11 -35
2 0 -4 -24 5 -52 19 -151 78 -568 235 -680 256 -39 7 -119 34 -104 35 5 0 3 7
-4 15 -43 52 80 66 260 28z m1305 -64 c53 -14 163 -80 204 -123 l34 -35 -27
-7 c-14 -3 -26 -10 -26 -15 0 -5 -6 -6 -14 -3 -8 3 -17 0 -22 -7 -4 -7 -3 -10
3 -6 5 3 10 0 10 -9 0 -12 -3 -12 -21 1 -12 8 -74 42 -138 75 -74 37 -118 66
-118 76 0 18 44 64 62 64 7 0 31 -5 53 -11z m-205 -89 c52 -18 129 -48 170
-67 90 -41 222 -122 216 -132 -5 -7 91 -65 109 -66 6 -1 9 -6 8 -13 -2 -7 3
-12 11 -12 17 0 15 -38 -3 -49 -7 -5 -23 -6 -35 -4 -17 4 -18 3 -6 -6 37 -26
-6 -7 -63 27 -217 135 -430 232 -566 259 -97 19 -116 42 -77 92 17 22 128 8
236 -29z m-1377 -49 c19 -11 59 -27 89 -37 55 -17 56 -18 53 -51 -6 -58 -77
-255 -90 -249 -7 2 -49 8 -94 11 -61 6 -81 11 -81 22 0 8 13 61 30 117 16 55
34 125 40 154 7 28 13 52 16 52 2 0 19 -9 37 -19z m382 -41 c13 -5 14 -9 5 -9
-8 0 -24 4 -35 9 -13 5 -14 9 -5 9 8 0 24 -4 35 -9z m-1 -53 c33 -12 63 -29
67 -37 11 -21 21 -55 17 -57 -2 -1 6 -9 17 -18 l20 -17 -20 7 c-11 4 -42 14
-70 22 -27 8 -77 26 -110 40 -33 14 -70 29 -82 34 -21 8 -22 11 -11 35 12 25
15 26 63 20 27 -3 77 -16 109 -29z m1037 -69 c34 -18 88 -47 122 -64 48 -25
61 -36 61 -56 1 -24 -4 -27 -46 -29 -12 0 -15 -6 -11 -17 6 -15 5 -16 -12 -2
-11 8 -28 23 -39 32 -10 9 -58 34 -106 55 -62 27 -85 43 -82 53 4 14 42 60 49
60 2 0 31 -15 64 -32z m-531 2 c0 -5 -5 -10 -11 -10 -5 0 -7 5 -4 10 3 6 8 10
11 10 2 0 4 -4 4 -10z m-1416 -127 c-11 -46 -39 -94 -109 -188 -37 -49 -76
-108 -87 -130 -50 -105 -53 -107 -154 -165 -102 -57 -223 -113 -376 -171 -48
-19 -88 -40 -88 -46 0 -7 -12 -13 -27 -13 l-28 1 28 20 c15 12 34 33 42 48 17
34 68 85 118 119 21 14 45 38 53 54 8 16 30 36 49 45 19 9 35 20 35 25 0 7
-33 -2 -75 -22 -32 -15 -145 -56 -205 -75 -30 -10 -64 -21 -75 -26 -22 -9
-173 -57 -360 -113 -66 -20 -121 -41 -123 -46 -2 -5 -9 -7 -15 -5 -7 3 -30 -2
-52 -10 -24 -8 -32 -14 -20 -15 12 -1 4 -7 -20 -15 -22 -8 -48 -12 -59 -9 -12
4 -16 2 -12 -5 4 -6 -5 -13 -21 -16 -15 -4 -38 -11 -51 -16 -13 -5 -40 -9 -60
-9 -26 0 -33 -3 -23 -9 12 -8 9 -11 -12 -17 -16 -3 -31 -4 -34 0 -4 3 2 6 12
6 10 0 16 3 13 6 -6 6 -20 2 -218 -57 -94 -28 -175 -50 -295 -80 -22 -5 -56
-14 -75 -19 -129 -33 -492 -104 -600 -118 -47 -6 -123 -17 -170 -26 -141 -24
-520 -85 -600 -96 -148 -20 -210 -32 -204 -41 8 -13 74 -11 204 6 283 38 410
54 474 60 38 3 74 9 80 13 6 4 20 7 31 8 44 1 139 16 154 24 9 4 72 15 141 24
139 17 296 47 535 101 88 19 192 43 230 51 91 20 537 133 550 139 6 3 -5 3
-24 0 -19 -3 -32 -3 -30 0 10 10 201 65 209 60 5 -3 82 22 172 54 284 104 326
117 338 105 33 -33 -167 -139 -468 -250 -120 -44 -178 -70 -170 -76 9 -6 5 -8
-12 -7 -14 1 -34 1 -45 0 -17 -1 -18 -3 -5 -11 11 -7 6 -8 -17 -4 -20 4 -39 2
-48 -6 -8 -7 -32 -14 -52 -17 -21 -2 -95 -20 -164 -39 -199 -54 -315 -81 -439
-103 -63 -11 -203 -36 -310 -56 -107 -20 -262 -47 -344 -61 -81 -14 -159 -29
-172 -34 -13 -5 -30 -7 -38 -4 -8 3 -17 1 -20 -5 -4 -6 -20 -8 -38 -4 -20 4
-29 3 -25 -4 8 -13 -56 -27 -82 -18 -10 3 -92 -4 -182 -16 -90 -12 -220 -25
-289 -29 -69 -5 -152 -11 -185 -15 -44 -5 -56 -4 -45 4 12 9 11 11 -7 11 -13
0 -23 5 -23 10 0 6 7 10 15 10 8 0 15 6 15 14 0 8 6 17 13 19 6 3 -1 6 -16 6
-24 1 -28 5 -25 24 2 14 10 22 23 22 23 0 27 26 6 33 -8 3 -11 0 -7 -7 10 -16
-3 -14 -20 4 -14 13 -14 15 1 15 28 0 5 20 -23 21 -23 0 -24 2 -8 8 31 12 2
23 -39 15 -31 -5 -34 -8 -23 -22 11 -13 10 -14 -9 -3 -15 7 -29 8 -40 2 -23
-12 -105 -35 -115 -33 -13 3 -9 -16 5 -21 6 -3 -6 -3 -27 0 -35 6 -39 4 -32
-13 4 -10 4 -15 0 -11 -4 4 -17 -4 -28 -16 -27 -29 -61 -44 -53 -23 4 10 1 13
-8 10 -8 -3 -11 -12 -8 -20 3 -8 1 -14 -3 -14 -20 0 -54 13 -54 20 0 12 197
95 306 129 54 17 149 42 209 56 61 14 153 36 205 50 81 21 259 62 470 110 30
7 156 36 279 64 123 28 226 50 228 47 3 -2 -39 -14 -91 -26 -53 -13 -96 -26
-96 -30 0 -4 -6 -7 -12 -7 -7 1 -35 -2 -61 -6 -36 -6 -47 -12 -43 -23 3 -8 1
-14 -4 -14 -6 0 -10 4 -10 10 0 5 -16 1 -35 -10 -20 -11 -47 -20 -60 -20 -17
0 -25 -6 -25 -16 0 -9 -8 -23 -17 -30 -22 -17 -97 -19 -87 -3 3 6 18 9 33 6
15 -3 34 1 46 10 18 14 16 15 -35 9 -30 -4 -69 -8 -86 -8 -25 -1 -30 -5 -26
-20 3 -13 -1 -18 -16 -18 -12 0 -24 5 -28 12 -4 6 -3 8 4 4 6 -3 13 -2 17 4 7
11 0 12 -33 4 l-23 -7 26 -17 27 -18 -44 1 c-23 1 -56 -2 -73 -7 -24 -6 -27
-5 -15 4 12 10 10 10 -10 5 -14 -4 -54 -8 -90 -10 -107 -7 -151 -15 -144 -27
4 -7 2 -8 -4 -4 -12 7 -100 -12 -107 -23 -5 -8 154 -3 175 6 8 3 38 7 65 9 28
1 91 7 140 14 115 16 154 20 185 21 14 1 30 6 37 11 7 5 22 7 34 3 12 -4 19
-3 16 2 -3 4 11 9 31 9 20 1 73 7 117 13 44 7 107 16 140 21 33 4 110 18 170
30 61 12 121 24 135 26 56 10 245 57 400 100 91 25 221 62 290 81 69 18 139
38 155 42 67 19 458 145 565 182 63 23 180 63 260 90 80 27 154 54 165 59 11
5 94 37 185 71 300 112 407 166 565 286 39 29 71 53 73 53 1 0 -1 -12 -4 -27z
m2164 -8 c-3 -3 -9 2 -12 12 -6 14 -5 15 5 6 7 -7 10 -15 7 -18z m302 10 c0
-8 -7 -15 -15 -15 -9 0 -12 6 -9 15 4 8 10 15 15 15 5 0 9 -7 9 -15z m-2785
-15 c-3 -5 -12 -10 -18 -10 -7 0 -6 4 3 10 19 12 23 12 15 0z m2190 0 c21 -8
25 -14 20 -33 -8 -25 -81 -185 -168 -367 -70 -148 -220 -462 -288 -608 -27
-57 -49 -106 -49 -108 0 -3 -22 -51 -49 -107 -27 -56 -74 -155 -105 -220 -31
-64 -56 -119 -56 -122 0 -4 -82 -180 -110 -235 -10 -19 -50 -105 -88 -190 -39
-85 -94 -202 -122 -260 -29 -58 -81 -170 -117 -250 -36 -80 -71 -156 -79 -170
-20 -38 -128 -276 -199 -440 -68 -157 -86 -198 -178 -395 -33 -71 -72 -165
-87 -209 l-27 -79 -33 58 c-45 79 -50 62 111 405 37 80 74 161 82 180 27 66
169 374 263 572 52 109 94 199 94 202 0 2 23 53 51 113 28 59 96 207 151 328
55 121 139 299 185 395 47 96 123 261 170 365 46 105 124 273 173 375 48 102
126 267 174 366 47 100 86 184 86 187 0 13 115 243 124 249 15 11 40 10 71 -2z
m445 -28 c3 -2 -6 -1 -20 3 -14 4 -32 14 -40 22 -12 12 -7 11 20 -2 19 -10 37
-20 40 -23z m-2720 -17 c-25 -13 -52 -24 -60 -24 -8 0 8 11 35 25 65 31 84 30
25 -1z m941 -21 l36 -5 -44 -122 c-24 -67 -62 -166 -84 -220 l-41 -97 -82 6
c-44 4 -83 8 -85 10 -2 2 29 88 68 193 39 104 74 203 77 221 l7 31 56 -6 c31
-3 72 -8 92 -11z m304 2 c8 3 21 2 30 -3 13 -8 8 -12 -25 -22 -23 -7 -45 -10
-48 -7 -3 3 2 6 12 6 13 0 16 6 12 23 -3 12 -3 17 0 10 3 -7 11 -10 19 -7z
m-1330 -16 c-3 -5 -12 -10 -18 -10 -7 0 -6 4 3 10 19 12 23 12 15 0z m-29 -22
c4 -7 3 -8 -4 -4 -6 4 -25 0 -41 -9 -43 -22 -53 -18 -11 5 42 23 47 24 56 8z
m-106 -38 c-8 -5 -19 -10 -25 -10 -5 0 -3 5 5 10 8 5 20 10 25 10 6 0 3 -5 -5
-10z m-4901 -62 c13 -35 45 -105 72 -157 27 -52 49 -100 49 -108 0 -7 -12 -37
-26 -65 -44 -87 -94 -227 -100 -281 -3 -31 0 -73 9 -105 13 -49 13 -53 -4 -63
-18 -9 -19 -2 -20 183 -1 106 -4 298 -8 426 -3 127 -4 232 -1 232 3 0 16 -28
29 -62z m4831 32 c-8 -5 -19 -10 -25 -10 -5 0 -3 5 5 10 8 5 20 10 25 10 6 0
3 -5 -5 -10z m1941 -15 c57 -8 162 -17 234 -20 71 -4 133 -9 137 -11 10 -7 0
-31 -129 -302 -92 -191 -120 -242 -132 -237 -9 3 -45 10 -81 15 -36 5 -119 16
-185 24 -158 21 -177 26 -172 39 19 46 131 323 149 367 42 107 57 140 66 140
5 0 55 -7 113 -15z m-2021 -15 c-8 -5 -19 -10 -25 -10 -5 0 -3 5 5 10 8 5 20
10 25 10 6 0 3 -5 -5 -10z m-50 -20 c-8 -5 -19 -10 -25 -10 -5 0 -3 5 5 10 8
5 20 10 25 10 6 0 3 -5 -5 -10z m-120 -45 c-14 -8 -29 -14 -35 -14 -5 0 1 6
15 14 14 8 30 14 35 14 6 0 -1 -6 -15 -14z m-81 -29 c-2 -3 -27 -14 -54 -25
-28 -11 -41 -20 -30 -20 15 -1 16 -4 7 -13 -9 -9 -15 -9 -23 -1 -7 7 -26 10
-43 7 -39 -5 -28 0 59 31 68 23 93 29 84 21z m1745 -22 c3 -8 2 -12 -4 -9 -6
3 -10 10 -10 16 0 14 7 11 14 -7z m-1984 -64 c-8 -5 -24 -9 -35 -9 l-20 0 20
9 c11 5 27 9 35 9 13 1 13 0 0 -9z m230 -55 c0 -2 -9 -3 -19 -2 -11 0 -18 5
-15 9 4 6 34 0 34 -7z m-531 -39 c-2 -2 -107 -36 -234 -76 -317 -100 -382
-119 -445 -135 -30 -8 -84 -21 -120 -30 -36 -9 -70 -20 -75 -25 -6 -5 -31 -12
-55 -16 -25 -3 -76 -14 -115 -24 -38 -10 -90 -21 -115 -24 -25 -3 43 17 150
44 237 61 506 139 780 224 187 58 241 73 229 62z m1932 -56 c10 0 19 -4 19 -9
0 -10 -58 3 -69 15 -3 4 2 4 12 1 10 -4 27 -7 38 -7z m-56 -25 c42 -8 59 -16
58 -26 -3 -14 -197 -522 -227 -591 -14 -33 -19 -36 -39 -29 -12 4 -66 14 -120
21 -92 13 -98 15 -104 39 -11 48 -45 121 -57 121 -6 0 16 15 49 33 75 40 120
71 163 111 35 32 110 172 153 283 21 54 27 62 44 56 11 -4 47 -12 80 -18z
m-677 -52 c-47 -64 -65 -98 -46 -88 7 4 -2 -7 -21 -24 -18 -17 -38 -31 -43
-31 -5 0 -7 -4 -4 -8 2 -4 -5 -14 -17 -22 -21 -12 -21 -12 -7 5 14 17 14 18
-8 6 -12 -7 -20 -16 -18 -20 3 -4 -5 -7 -17 -6 -12 1 -31 -2 -42 -6 -196 -77
-273 -104 -394 -138 -79 -23 -150 -46 -158 -52 -8 -8 -13 -8 -13 -1 0 13 80
84 142 127 27 17 46 34 43 36 -2 3 5 10 15 17 11 7 20 8 20 3 0 -10 30 1 119
41 25 11 88 36 140 54 53 19 105 39 116 44 153 69 192 89 204 104 8 9 16 14
19 12 2 -3 -11 -27 -30 -53z m-118 -7 c0 -5 -88 -46 -97 -46 -9 1 78 49 90 50
4 0 7 -2 7 -4z m1078 -11 c1 -1 4 -16 7 -33 2 -17 6 -36 10 -41 7 -13 -5 -61
-16 -61 -5 0 -6 7 -2 15 5 13 2 14 -20 4 -15 -7 -23 -17 -20 -25 3 -9 -2 -14
-13 -14 -16 0 -17 -2 -4 -10 12 -8 11 -10 -7 -10 -15 0 -27 12 -42 43 -23 48
-26 67 -11 67 6 0 10 6 10 13 0 22 63 67 85 60 11 -3 21 -7 23 -8z m-1203 -45
c-3 -5 -14 -10 -23 -9 -14 0 -13 2 3 9 27 11 27 11 20 0z m230 0 c-3 -5 -11
-10 -16 -10 -6 0 -7 5 -4 10 3 6 11 10 16 10 6 0 7 -4 4 -10z m1483 -75 c81
-9 171 -18 200 -21 28 -3 52 -10 52 -16 0 -12 -220 -499 -231 -512 -4 -5 -57
-1 -121 8 -62 9 -149 21 -193 26 -122 15 -117 12 -96 73 10 29 52 135 93 237
41 102 78 193 81 203 8 21 26 21 215 2z m-6398 -49 c0 -18 56 -128 77 -151 10
-11 47 -59 81 -107 35 -48 84 -111 110 -140 98 -111 101 -118 17 -54 -109 84
-177 168 -237 292 -40 82 -74 189 -57 178 5 -3 9 -11 9 -18z m3950 -167 c-52
-43 -141 -95 -275 -159 -144 -70 -261 -112 -374 -134 -85 -17 -107 -14 -95 17
6 17 127 82 254 137 179 78 505 187 520 173 3 -2 -11 -18 -30 -34z m-2010 -29
c0 -5 -4 -10 -10 -10 -5 0 -10 5 -10 10 0 6 5 10 10 10 6 0 10 -4 10 -10z m25
-20 c3 -5 0 -10 -9 -10 -8 0 -23 -3 -33 -6 -16 -5 -16 -4 1 10 23 19 32 20 41
6z m472 -56 c-3 -3 -12 -4 -19 -1 -8 3 -5 6 6 6 11 1 17 -2 13 -5z m713 -89
c0 -12 -212 -97 -345 -139 -194 -60 -705 -91 -950 -57 l-50 7 40 7 c22 4 90
12 150 18 109 10 139 14 370 44 121 16 564 92 685 117 55 12 100 13 100 3z
m830 -15 c0 -5 -10 -10 -22 -10 -19 0 -20 2 -8 10 19 13 30 13 30 0z m-4805
-9 c17 -7 15 -10 -19 -26 -21 -10 -64 -42 -96 -72 l-57 -53 -17 57 c-9 32 -12
61 -7 66 29 29 149 46 196 28z m2082 -43 c-8 -12 -15 -14 -24 -6 -16 13 -8 27
16 25 15 -1 17 -4 8 -19z m-1682 -75 c134 -90 212 -130 305 -156 30 -9 64 -23
75 -32 11 -9 13 -13 5 -9 -13 7 -13 5 -1 -9 7 -9 16 -15 20 -13 3 2 6 -10 7
-27 1 -18 5 -62 9 -99 l8 -67 -36 -6 c-23 -5 -81 1 -157 15 -101 19 -120 26
-120 41 0 10 5 21 10 24 16 10 51 85 45 95 -9 15 -51 12 -65 -5 -7 -8 -17 -15
-21 -15 -5 0 -49 -25 -97 -56 -86 -54 -88 -55 -142 -49 -73 9 -110 29 -110 59
0 13 24 61 54 107 61 94 70 121 43 127 -21 4 -128 -62 -212 -133 -66 -56 -106
-85 -116 -85 -10 0 -38 101 -41 145 -2 45 10 71 60 133 69 85 105 99 258 101
l91 1 128 -87z m5705 77 c120 -19 121 -19 114 -43 -3 -12 -25 -71 -48 -132
-24 -60 -51 -132 -61 -158 l-17 -49 -17 49 c-9 26 -38 80 -63 119 -40 62 -44
73 -32 86 8 8 20 42 26 76 6 34 16 62 22 62 6 0 40 -5 76 -10z m-5675 -11 c11
-17 0 -20 -21 -4 -17 13 -17 14 -2 15 9 0 20 -5 23 -11z m4812 -15 c-3 -3 -12
-4 -19 -1 -8 3 -5 6 6 6 11 1 17 -2 13 -5z m1786 -58 c89 -10 197 -27 197 -32
0 -3 -15 -37 -34 -77 -126 -268 -208 -442 -209 -443 -1 -1 -29 2 -62 6 -33 5
-122 16 -197 26 l-137 17 29 80 c16 43 66 166 111 271 l82 192 79 -17 c44 -9
107 -20 141 -23z m-4976 18 c-3 -3 -12 -4 -19 -1 -8 3 -5 6 6 6 11 1 17 -2 13
-5z m2863 -48 c0 -2 -7 -7 -16 -10 -8 -3 -12 -2 -9 4 6 10 25 14 25 6z m-2987
-23 c-7 -2 -19 -2 -25 0 -7 3 -2 5 12 5 14 0 19 -2 13 -5z m2914 1 c-3 -3 -12
-4 -19 -1 -8 3 -5 6 6 6 11 1 17 -2 13 -5z m-38 -8 c-6 -6 -178 -46 -192 -45
-7 1 29 12 78 24 88 23 123 29 114 21z m-3319 -32 c0 -2 -17 -4 -37 -4 -24 0
-33 3 -25 9 12 7 62 4 62 -5z m818 9 c-10 -2 -28 -2 -40 0 -13 2 -5 4 17 4 22
1 32 -1 23 -4z m95 -10 c-13 -2 -33 -2 -45 0 -13 2 -3 4 22 4 25 0 35 -2 23
-4z m74 -9 c-3 -3 -12 -4 -19 -1 -8 3 -5 6 6 6 11 1 17 -2 13 -5z m2459 -3
c-9 -14 -151 -80 -276 -128 -287 -110 -639 -210 -874 -248 -99 -16 -523 -68
-701 -85 -135 -13 -597 -30 -625 -23 -78 21 140 90 340 108 41 4 169 18 283
31 115 13 228 24 253 24 30 0 44 4 44 14 0 9 20 15 63 20 128 14 152 18 157
25 3 5 86 11 185 14 193 6 331 26 525 76 209 53 437 118 495 141 17 6 45 13
64 16 18 2 40 8 50 14 20 12 24 12 17 1z m-1218 -89 c2 -7 -7 -12 -23 -12 -22
0 -24 2 -13 15 15 16 30 15 36 -3z m-3673 -162 c27 -7 27 -8 5 -8 -14 0 -38 4
-55 8 -27 7 -27 8 -5 8 14 0 39 -4 55 -8z m90 -20 c13 -5 14 -9 5 -9 -8 0 -24
4 -35 9 -13 5 -14 9 -5 9 8 0 24 -4 35 -9z m65 -21 c-12 -9 -11 -10 7 -6 13 3
26 1 29 -5 3 -5 16 -8 27 -6 12 1 28 -1 35 -5 7 -5 12 -3 12 3 0 6 5 8 10 5
23 -14 8 -25 -27 -21 -81 10 -123 19 -123 26 0 11 12 20 29 20 14 0 14 -2 1
-11z m-67 -6 c-7 -2 -21 -2 -30 0 -10 3 -4 5 12 5 17 0 24 -2 18 -5z m331 -18
c232 -20 1195 -226 1326 -283 l45 -20 -36 -7 c-20 -4 -78 -2 -130 4 -105 11
-345 34 -371 35 -10 0 -18 3 -18 6 0 3 -8 6 -17 6 -10 1 -81 6 -158 13 -77 6
-264 18 -415 26 -457 25 -714 55 -734 87 -5 9 -8 20 -4 23 3 3 75 -3 159 -14
174 -23 313 -35 574 -51 99 -6 240 -18 314 -26 74 -8 152 -14 175 -13 37 0 39
1 16 10 -13 5 -72 21 -130 35 -58 14 -143 36 -190 50 -113 32 -380 91 -455 99
-33 4 -63 9 -68 12 -15 9 5 23 26 19 12 -3 53 -8 91 -11z m-457 -42 c0 -7 -3
-13 -7 -13 -3 0 -14 6 -23 13 -16 11 -15 12 6 12 13 0 24 -6 24 -12z m68 -13
c3 -5 -1 -10 -9 -10 -9 0 -16 5 -16 10 0 6 4 10 9 10 6 0 13 -4 16 -10z m170
-10 c16 -7 13 -9 -15 -9 -19 0 -44 4 -55 9 -16 7 -13 9 15 9 19 0 44 -4 55 -9z
m340 -55 l30 -14 -30 6 c-16 3 -37 9 -45 14 -27 15 11 10 45 -6z m6170 -16
c111 -11 215 -28 215 -34 0 -2 -17 -41 -39 -87 -21 -45 -76 -163 -121 -261
-58 -123 -86 -175 -94 -167 -5 5 -15 10 -20 10 -6 0 -4 -5 4 -10 13 -9 13 -10
0 -10 -13 0 -13 -1 0 -10 20 -12 11 -34 -114 -299 -65 -139 -107 -216 -118
-219 -21 -5 -24 -18 -5 -25 9 -3 9 -8 1 -17 -8 -8 -18 -9 -30 -2 -11 5 -64 17
-119 27 -55 9 -105 19 -112 21 -6 1 -14 32 -18 68 -6 58 -3 75 30 177 21 62
54 142 73 178 19 37 41 83 48 104 7 20 20 52 28 70 32 69 165 385 187 445 l24
64 35 -6 c19 -3 85 -11 145 -17z m-5215 -7 c0 -5 -13 -7 -30 -4 -16 2 -30 6
-30 8 0 2 14 4 30 4 17 0 30 -4 30 -8z m63 -19 c-7 -2 -19 -2 -25 0 -7 3 -2 5
12 5 14 0 19 -2 13 -5z m126 -23 c46 -11 93 -19 105 -18 35 4 227 -14 221 -21
-4 -3 -32 -6 -63 -7 -110 -3 -110 -3 -88 -19 10 -8 23 -12 29 -8 6 4 7 1 2 -7
-9 -15 11 -30 43 -30 12 0 22 -6 23 -12 0 -9 2 -9 5 -2 3 8 16 9 40 4 29 -7
149 -7 149 0 0 1 9 3 20 5 11 2 43 8 70 13 28 6 53 7 57 4 10 -10 -311 -152
-413 -182 l-26 -8 23 57 c13 31 24 68 24 83 0 51 -86 101 -245 143 -110 29
-92 33 24 5z m2314 -22 c68 -52 107 -91 101 -100 -3 -5 0 -7 8 -6 7 2 12 -2
11 -8 -1 -6 4 -11 12 -11 17 0 183 -144 184 -161 1 -7 6 -10 13 -6 7 5 8 3 3
-5 -5 -9 -17 -2 -40 24 -18 22 -37 35 -43 31 -8 -5 -10 -1 -6 8 3 9 1 16 -5
16 -6 0 -11 -6 -12 -12 0 -10 -2 -10 -6 0 -5 14 -43 17 -43 3 0 -5 7 -11 15
-15 22 -8 19 -16 -20 -60 -19 -22 -32 -43 -29 -48 3 -5 1 -7 -4 -6 -12 4 -152
-143 -152 -160 0 -7 -4 -10 -10 -7 -5 3 -24 -7 -42 -24 -55 -50 -82 -72 -116
-99 -25 -19 -30 -27 -20 -35 9 -6 7 -7 -6 -3 -11 4 -22 3 -25 -2 -3 -4 -20
-18 -37 -29 -28 -20 -42 -53 -22 -53 4 0 8 -5 8 -11 0 -6 -7 -8 -17 -5 -10 4
-25 -2 -39 -15 -12 -11 -27 -18 -33 -15 -5 4 -15 -2 -21 -11 -10 -16 -11 -16
-7 4 3 14 1 20 -8 17 -17 -7 -14 -37 5 -47 10 -5 6 -6 -9 -3 -13 3 -38 -3 -55
-12 -29 -15 -30 -17 -8 -20 12 -2 22 -8 22 -13 0 -7 -12 -8 -30 -4 -21 5 -30
3 -30 -6 0 -10 -3 -10 -12 -1 -13 13 -42 17 -34 4 3 -4 -17 -8 -44 -7 -27 1
-47 -2 -44 -6 2 -4 -40 -5 -93 -2 -90 6 -107 10 -219 60 -68 29 -128 53 -136
53 -7 0 -42 14 -77 30 -35 17 -95 37 -134 46 -38 9 -106 35 -151 59 -45 23
-100 46 -123 50 -28 4 -57 20 -87 47 -26 22 -46 43 -46 47 0 4 33 17 73 30 39
13 180 63 312 111 132 49 359 126 505 173 146 47 378 121 515 165 138 45 254
81 258 81 5 1 27 -13 50 -31z m1427 -1 c0 -11 -40 -47 -75 -69 -77 -47 -153
-86 -159 -81 -3 4 -6 1 -6 -5 0 -6 -7 -9 -15 -6 -14 6 -13 8 2 19 10 7 22 11
27 8 5 -4 6 -1 3 4 -9 14 40 46 55 37 6 -4 8 -3 5 3 -8 13 10 29 72 64 39 23
91 37 91 26z m-2977 -34 c-7 -2 -19 -2 -25 0 -7 3 -2 5 12 5 14 0 19 -2 13 -5z
m-1730 -20 c-13 -2 -33 -2 -45 0 -13 2 -3 4 22 4 25 0 35 -2 23 -4z m4760 -63
c-3 -9 -21 -27 -41 -38 -35 -20 -185 -130 -284 -209 -27 -21 -54 -37 -62 -37
-7 1 -13 -5 -12 -14 0 -8 -6 -17 -14 -20 -12 -4 -13 -3 -3 10 7 8 10 18 6 21
-9 10 131 143 194 185 69 46 68 52 -3 12 -31 -17 -53 -27 -50 -21 4 5 30 23
59 40 29 16 79 55 112 85 l60 55 21 -26 c12 -14 19 -33 17 -43z m-4440 43 c65
-3 119 -9 121 -12 5 -8 -198 -6 -210 1 -5 4 -49 9 -99 13 -49 4 -92 10 -95 13
-3 2 33 2 80 -2 47 -4 138 -9 203 -13z m1317 13 c0 -2 -7 -7 -16 -10 -8 -3
-12 -2 -9 4 6 10 25 14 25 6z m-740 -66 c168 -11 209 -18 189 -31 -11 -7 -10
-9 4 -9 9 0 17 -4 17 -9 0 -5 -19 -7 -42 -4 -30 5 -39 3 -34 -6 4 -6 12 -9 17
-6 5 4 9 1 9 -6 0 -7 -8 -9 -22 -5 -13 4 -48 9 -78 12 -53 5 -54 5 -35 -11 12
-11 14 -16 5 -13 -8 3 -28 1 -45 -3 -29 -8 -29 -8 -10 8 l20 16 -20 -8 c-44
-16 -58 -18 -51 -7 4 7 2 12 -3 12 -6 0 -11 -4 -11 -10 0 -5 -23 -10 -51 -10
-31 0 -48 -4 -44 -10 4 -6 -17 -10 -57 -9 -56 1 -59 2 -28 10 19 4 44 6 55 3
19 -5 19 -4 2 6 -10 7 -28 9 -40 6 -13 -3 -29 2 -41 12 -11 9 -16 11 -12 5 4
-8 1 -13 -8 -13 -9 0 -13 8 -12 24 2 14 -5 31 -15 40 -11 9 -19 21 -19 27 0
12 21 12 360 -11z m3560 -66 c0 0 -9 -9 -19 -19 -19 -16 -20 -16 -18 2 0 11 8
19 19 19 10 0 18 -1 18 -2z m-4133 -20 c-3 -3 -12 -4 -19 -1 -8 3 -5 6 6 6 11
1 17 -2 13 -5z m186 -11 c-7 -2 -19 -2 -25 0 -7 3 -2 5 12 5 14 0 19 -2 13 -5z
m64 1 c-3 -3 -12 -4 -19 -1 -8 3 -5 6 6 6 11 1 17 -2 13 -5z m342 -30 c3 -4
-19 -4 -49 0 -30 3 -74 6 -98 6 -24 0 -41 4 -38 8 5 9 175 -4 185 -14z m3526
16 c-3 -5 -12 -10 -18 -10 -7 0 -6 4 3 10 19 12 23 12 15 0z m2190 -57 c9 -32
41 -128 71 -213 31 -85 132 -380 225 -655 94 -275 184 -536 201 -580 16 -44
47 -132 68 -195 59 -178 346 -990 413 -1170 55 -145 163 -457 219 -630 27 -85
63 -192 80 -238 16 -46 28 -85 26 -87 -12 -12 -203 119 -276 189 -261 251
-341 445 -962 2336 -106 322 -214 640 -241 708 -27 68 -49 131 -49 142 0 18
89 204 95 198 1 -2 123 -361 270 -798 375 -1115 513 -1524 593 -1755 38 -110
82 -236 97 -280 37 -108 150 -333 161 -322 4 4 -16 60 -146 397 -108 279 -184
497 -462 1320 -438 1297 -447 1325 -478 1442 l-18 67 42 90 c22 50 44 90 48
91 4 0 14 -26 23 -57z m-1885 -143 c-14 -11 -28 -20 -32 -20 -5 0 -8 -5 -8
-10 0 -7 7 -7 21 0 36 20 113 40 149 39 19 0 28 -3 20 -6 -130 -45 -201 -77
-290 -131 -39 -24 -74 -29 -68 -9 2 6 53 45 114 84 106 71 144 92 94 53z m205
-10 c-11 -5 -27 -9 -35 -9 -9 0 -8 4 5 9 11 5 27 9 35 9 9 0 8 -4 -5 -9z
m-1048 -14 c22 -39 130 -141 159 -150 13 -4 34 -33 54 -74 44 -88 165 -209
236 -235 44 -16 83 -51 70 -64 -2 -3 -30 0 -60 7 -66 14 -108 3 -171 -41 l-40
-29 -70 20 c-94 27 -124 25 -171 -9 -29 -21 -54 -30 -102 -34 -56 -5 -66 -9
-102 -45 -22 -22 -56 -47 -75 -56 -42 -20 -130 -36 -203 -36 -62 0 -133 -30
-157 -67 -33 -49 3 -96 67 -86 14 2 29 -1 33 -7 3 -6 12 -8 18 -4 7 3 2 -3 -9
-13 -12 -10 -27 -28 -33 -41 -7 -12 -17 -20 -23 -16 -6 4 -8 3 -5 -3 3 -5 -10
-34 -29 -64 -19 -30 -44 -72 -56 -93 -11 -21 -35 -61 -54 -87 -19 -27 -34 -51
-34 -53 0 -3 -13 -24 -28 -48 -16 -24 -39 -69 -52 -100 -22 -54 -25 -57 -41
-42 -10 9 -15 23 -12 32 5 11 3 13 -7 7 -10 -6 -12 -4 -6 11 4 10 4 15 0 11
-4 -4 -13 -2 -19 3 -14 11 -8 57 8 67 6 4 7 1 2 -7 -5 -9 -4 -11 4 -6 6 4 9
11 6 16 -3 5 8 24 23 42 57 64 76 116 76 203 1 76 2 81 29 97 36 23 67 75 67
113 0 17 -9 48 -20 70 l-20 39 208 210 c198 201 311 326 451 499 34 42 66 77
71 77 5 0 13 -6 17 -14z m1334 -166 c52 -14 66 -35 88 -130 32 -140 42 -288
39 -577 l-3 -272 -62 83 c-66 88 -183 199 -298 283 -85 61 -105 72 -175 94
-62 19 -76 45 -43 81 15 16 19 41 21 134 4 113 4 114 33 135 17 12 27 24 24
27 -3 4 -9 1 -13 -5 -4 -6 -16 -13 -27 -15 -26 -4 -33 30 -8 38 10 3 26 10 35
15 10 5 24 6 32 3 8 -3 17 -1 21 5 3 6 16 11 28 10 17 0 13 -4 -15 -17 -21 -9
-38 -21 -38 -25 0 -5 3 -7 8 -5 4 2 30 14 57 27 28 13 57 30 66 37 10 9 54 16
126 21 l111 6 -31 26 c-29 24 -38 26 -126 26 -64 -1 -84 2 -61 6 42 9 160 2
211 -11z m-254 -6 c-3 -3 -12 -4 -19 -1 -8 3 -5 6 6 6 11 1 17 -2 13 -5z m218
-14 c4 -7 -3 -8 -22 -4 -38 9 -42 14 -10 14 14 0 29 -5 32 -10z m-215 -54 c0
-2 -7 -7 -16 -10 -8 -3 -12 -2 -9 4 6 10 25 14 25 6z m-1972 -40 c-7 -8 -15
-12 -17 -11 -5 6 10 25 20 25 5 0 4 -6 -3 -14z m-6199 -31 c-19 -70 -160 -360
-211 -434 -112 -166 -184 -251 -213 -251 -15 0 1 48 58 181 100 230 240 485
259 473 6 -4 9 -3 5 2 -3 5 2 18 10 29 16 20 16 20 9 0 -5 -17 -2 -16 17 6 12
14 34 26 49 27 26 2 26 1 17 -33z m6721 31 c0 -2 -8 -10 -17 -17 -16 -13 -17
-12 -4 4 13 16 21 21 21 13z m2870 -88 c68 -176 367 -1094 359 -1102 -2 -2
-15 -7 -29 -11 -24 -6 -30 1 -82 92 -31 54 -96 168 -145 253 -49 85 -136 240
-193 343 l-102 188 73 159 c41 88 77 159 81 160 3 0 21 -37 38 -82z m-10165
22 c-14 -15 -15 -20 -4 -21 10 0 11 -2 2 -6 -15 -6 -17 -43 -3 -43 6 0 10 7
10 16 0 8 4 13 9 9 6 -3 4 -17 -4 -32 -15 -29 -10 -47 6 -23 7 13 10 13 18 1
6 -9 11 -10 15 -2 4 6 15 3 31 -11 21 -18 22 -22 9 -35 -8 -8 -14 -19 -14 -26
0 -6 7 -2 16 9 15 19 16 19 9 -1 -21 -63 -46 -178 -52 -237 -6 -72 -23 -84
-23 -17 0 22 -4 38 -9 34 -5 -3 -9 8 -9 25 1 17 -2 33 -5 37 -4 3 -7 -2 -7
-12 0 -18 -1 -18 -14 0 -8 11 -12 25 -9 32 3 7 -2 13 -11 13 -9 0 -16 6 -15
13 3 23 -13 76 -23 74 -6 -1 -13 4 -15 11 -3 6 0 12 6 12 6 0 11 5 11 11 0 5
-4 7 -10 4 -6 -3 -10 5 -10 19 0 23 3 25 24 16 27 -10 48 6 53 40 5 31 -14 32
-41 3 l-25 -27 6 25 c6 21 5 22 -10 11 -8 -7 -19 -27 -22 -43 -4 -16 -11 -32
-17 -35 -7 -5 -9 3 -4 22 4 17 33 55 71 92 62 59 99 85 60 42z m8415 -102 c15
-40 32 -86 36 -101 l7 -28 -74 7 c-41 4 -98 14 -128 24 -53 16 -54 17 -57 60
-4 39 -1 46 34 80 22 20 59 46 83 57 l44 21 13 -24 c7 -13 26 -56 42 -96z
m-8444 5 c-3 -19 -36 -32 -36 -14 0 8 25 28 37 31 1 0 0 -8 -1 -17z m-93 -88
c-2 -7 3 -19 11 -28 9 -9 16 -21 16 -27 0 -6 7 -13 15 -16 9 -4 15 -19 15 -39
0 -18 5 -35 11 -37 5 -2 14 -29 18 -61 l8 -58 -34 33 c-42 40 -66 86 -83 155
-13 56 -8 90 14 90 8 0 12 -6 9 -12z m-593 -22 c0 -16 -6 -48 -14 -73 -13 -42
-16 -45 -46 -43 -18 0 -36 5 -41 10 -11 11 67 133 86 133 10 0 15 -9 15 -27z
m7680 -3 c6 -11 8 -20 6 -20 -3 0 -10 9 -16 20 -6 11 -8 20 -6 20 3 0 10 -9
16 -20z m1183 -12 c47 -15 72 -29 75 -41 4 -16 13 -17 87 -11 110 9 146 1 166
-35 l17 -29 -39 -11 c-57 -17 -39 -31 39 -31 107 0 202 -37 202 -78 0 -11 22
-28 58 -47 81 -41 238 -202 344 -353 135 -190 321 -571 334 -684 5 -47 3 -64
-18 -109 -43 -92 -171 -200 -281 -239 -39 -14 -83 -20 -140 -20 -103 0 -161
26 -236 105 -128 135 -155 306 -106 676 8 62 15 131 14 153 l-1 41 -14 -55
c-34 -132 -64 -345 -64 -448 0 -187 43 -307 144 -407 78 -77 132 -103 231
-112 48 -4 79 -11 82 -19 2 -7 51 -59 109 -115 116 -115 131 -123 497 -289
386 -175 524 -276 666 -490 70 -105 120 -221 158 -360 24 -93 28 -123 28 -255
0 -89 -6 -179 -14 -223 -14 -71 -14 -73 9 -97 l24 -25 -45 -43 c-61 -58 -106
-77 -203 -87 -44 -5 -113 -18 -153 -29 -54 -16 -226 -51 -249 -51 -11 0 -34
35 -34 53 0 24 29 88 57 126 17 23 17 24 -2 13 -47 -24 -86 -94 -87 -154 l0
-40 -55 4 c-74 6 -88 23 -87 102 0 36 8 76 17 96 21 41 21 46 0 29 -28 -24
-53 -92 -53 -147 l0 -53 -28 15 c-47 24 -67 98 -41 149 42 82 141 135 269 144
65 5 213 -7 290 -23 23 -5 23 -4 6 7 -31 19 -113 37 -200 44 -122 9 -121 9
-147 67 -17 40 -23 71 -23 128 0 138 56 260 156 340 31 25 55 47 53 49 -9 8
-94 -51 -132 -92 -106 -115 -142 -290 -88 -422 14 -33 25 -61 25 -61 0 -1 -21
-7 -47 -14 -96 -26 -138 -55 -181 -122 -39 -63 -40 -64 -109 -82 -62 -16 -83
-16 -189 -6 -65 6 -135 14 -154 18 -32 7 -35 10 -33 42 10 191 11 250 4 254
-4 3 -13 -44 -19 -104 -14 -125 -29 -167 -72 -203 -36 -31 -160 -72 -245 -82
-33 -4 -85 -14 -115 -23 -51 -15 -137 -18 -335 -11 -173 5 -353 -44 -442 -122
-18 -15 -52 -33 -75 -39 -24 -6 -63 -18 -88 -26 -59 -19 -94 -18 -111 3 -21
25 -15 106 12 149 15 25 18 35 8 32 -23 -6 -81 -129 -76 -161 3 -23 0 -27 -20
-27 -13 0 -40 7 -60 15 l-36 15 5 74 c4 57 11 85 33 122 l28 49 -31 -29 c-33
-30 -62 -100 -62 -147 0 -33 -13 -44 -29 -25 -21 26 -28 100 -14 149 17 60
102 152 191 208 160 101 525 256 716 303 69 18 126 57 148 101 6 13 1 10 -14
-7 -18 -21 -47 -35 -113 -54 -149 -42 -303 -93 -393 -130 -47 -18 -87 -34 -89
-34 -2 0 -7 8 -11 18 -4 9 -29 50 -56 91 -45 69 -104 220 -107 276 -1 17 -2
16 -9 -5 -7 -24 -9 -22 -31 25 -21 43 -24 64 -23 152 0 56 -3 100 -7 98 -14
-9 -31 -107 -26 -151 2 -25 18 -64 36 -93 18 -28 49 -101 70 -164 24 -72 53
-138 79 -177 23 -34 42 -67 42 -74 0 -6 -60 -40 -133 -75 -119 -57 -139 -71
-213 -145 -46 -45 -91 -101 -103 -127 -15 -31 -34 -53 -59 -66 -52 -29 -144
-55 -155 -44 -15 15 -9 138 8 171 17 33 7 40 -18 12 -16 -17 -31 -71 -42 -145
-5 -29 -10 -37 -21 -33 -9 3 -20 6 -25 6 -16 0 -39 58 -39 98 0 22 11 59 25
86 l25 46 -24 -16 c-34 -22 -59 -79 -64 -146 -2 -32 -8 -58 -13 -58 -5 0 -24
16 -43 35 -59 58 -60 131 -6 242 24 48 54 84 131 155 109 101 205 213 255 296
18 29 49 106 70 170 20 64 61 165 90 224 30 59 54 112 54 118 0 5 -13 10 -29
10 -58 0 -51 19 54 153 52 67 55 84 20 97 -34 13 -32 34 11 120 29 58 40 71
55 67 29 -8 24 21 -17 89 -20 32 -44 75 -54 95 -18 35 -22 37 -97 49 -285 45
-494 182 -595 390 -27 55 -33 79 -36 158 -4 91 -3 95 31 165 28 55 58 94 131
166 104 102 98 89 111 241 l5 65 -29 -89 c-29 -88 -72 -149 -125 -178 -17 -9
-18 -7 -12 18 11 42 97 179 154 247 27 32 55 76 63 99 19 58 78 147 152 227
34 38 71 84 82 102 16 27 40 42 121 78 92 39 100 45 96 67 -7 36 29 47 112 36
58 -8 69 -7 73 7 19 64 36 69 138 37 l88 -28 29 22 c64 47 102 70 116 70 9 0
47 -10 85 -22z m110 -15 c-7 -2 -19 -2 -25 0 -7 3 -2 5 12 5 14 0 19 -2 13 -5z
m1125 -39 c28 -8 52 -17 52 -20 0 -8 -100 -221 -180 -384 l-71 -145 5 199 c4
110 6 240 6 289 l0 89 68 -6 c37 -4 91 -14 120 -22z m-10229 -265 c-12 -30
-27 -72 -34 -94 -7 -22 -16 -51 -21 -65 -4 -14 -6 -27 -5 -29 2 -2 -2 -7 -8
-10 -5 -4 -12 -21 -15 -38 -3 -17 -19 -60 -35 -96 -16 -36 -28 -67 -25 -69 8
-8 -63 -175 -83 -196 -7 -7 -17 -21 -22 -30 -21 -37 -18 -4 4 53 13 33 58 148
100 255 84 215 156 383 161 377 2 -2 -6 -28 -17 -58z m764 -92 c20 -11 37 -23
37 -26 0 -4 -16 -24 -35 -46 -19 -22 -35 -43 -35 -48 0 -4 -31 9 -70 28 l-70
35 42 45 c46 49 60 51 131 12z m10082 -297 c37 -69 83 -153 102 -187 l35 -63
-26 -10 c-39 -15 -196 -40 -259 -41 -52 -2 -61 2 -113 41 -30 24 -74 60 -96
80 l-42 36 71 150 c39 82 87 188 108 237 l38 87 57 -102 c31 -57 87 -159 125
-228z m-10280 190 c3 -5 2 -10 -4 -10 -5 0 -18 -3 -28 -7 -16 -6 -16 -5 -4 10
15 19 27 22 36 7z m-29 -33 c10 4 12 0 8 -11 -3 -9 -13 -16 -21 -16 -8 0 -11
-4 -8 -10 9 -14 -3 -13 -19 2 -10 10 -10 17 -2 30 6 10 14 14 19 9 5 -5 16 -7
23 -4z m229 3 c3 -5 2 -10 -4 -10 -5 0 -13 5 -16 10 -3 6 -2 10 4 10 5 0 13
-4 16 -10z m-96 -15 l29 -14 -44 -47 -44 -46 -25 20 c-14 12 -26 24 -26 27 -1
11 61 75 72 75 5 0 23 -7 38 -15z m-133 -111 c39 -19 43 -50 6 -48 -12 1 -22
-4 -22 -10 0 -12 -92 -103 -183 -183 l-48 -41 -56 33 c-30 19 -60 36 -67 38
-14 5 29 42 67 58 15 6 31 8 35 4 4 -4 1 -10 -5 -12 -10 -4 -9 -10 2 -26 8
-12 15 -29 15 -39 0 -10 7 -18 15 -18 8 0 15 4 15 10 0 5 43 53 95 105 82 82
94 98 85 115 -19 36 -8 39 46 14z m100 -101 c-7 -7 -26 7 -26 19 0 6 6 6 15
-2 9 -7 13 -15 11 -17z m419 -23 c3 -5 1 -10 -4 -10 -6 0 -11 5 -11 10 0 6 2
10 4 10 3 0 8 -4 11 -10z m-309 -79 c6 -11 13 -18 16 -16 3 3 31 -22 62 -56
31 -34 54 -65 51 -68 -3 -2 -12 5 -21 17 -8 12 -19 20 -24 17 -9 -5 -102 100
-95 107 3 3 -6 11 -20 18 -14 7 -25 18 -25 23 0 15 44 -18 56 -42z m364 13 c0
-3 -7 -1 -15 6 -8 7 -15 17 -15 22 0 5 7 3 15 -6 8 -8 15 -18 15 -22z m-913
-109 c-19 -14 -271 -240 -315 -283 -13 -13 -22 -26 -18 -29 6 -7 109 78 206
171 36 34 88 81 117 105 43 36 54 41 71 32 19 -10 17 -14 -36 -64 -143 -134
-244 -217 -328 -270 l-41 -26 -44 45 c-39 40 -41 44 -20 44 12 0 19 4 16 10
-4 6 -11 7 -17 4 -7 -4 -8 -2 -4 4 4 7 15 8 30 2 16 -6 27 -5 35 3 9 9 14 8
22 -3 8 -12 9 -10 4 8 -4 13 -2 22 4 22 6 0 11 -5 11 -11 0 -5 4 -8 10 -4 5 3
7 13 4 23 -5 13 -4 14 4 3 5 -7 15 -10 22 -6 9 6 9 10 -1 17 -11 8 -10 9 4 4
18 -6 24 -1 137 104 32 30 71 64 86 75 15 11 32 25 38 31 6 7 13 10 16 7 3 -2
-3 -11 -13 -18z m-1330 -9 c38 -8 91 -25 118 -37 28 -12 54 -21 59 -20 4 1 17
-1 28 -5 14 -4 18 -12 14 -26 -4 -16 11 -38 55 -87 41 -46 75 -98 109 -169 28
-57 71 -133 97 -169 l46 -65 -109 107 c-199 196 -471 428 -536 457 -18 8 -23
15 -15 20 18 12 58 10 134 -6z m-50 -87 c50 -38 147 -120 215 -182 68 -62 152
-135 187 -162 72 -56 93 -75 135 -126 16 -18 34 -34 40 -34 6 -1 10 -7 8 -14
-1 -7 12 -29 31 -50 57 -64 170 -240 163 -257 -3 -9 -2 -12 4 -9 10 6 44 -59
60 -116 7 -22 4 -33 -8 -45 -10 -11 -17 -13 -20 -5 -2 6 -11 11 -20 11 -9 0
-27 15 -38 33 -33 50 -308 358 -451 503 -137 141 -262 247 -284 241 -8 -2 -10
-2 -6 1 10 5 -58 72 -73 72 -6 0 -10 3 -10 8 0 12 -52 32 -84 32 -24 0 -27 3
-16 10 13 8 13 10 -2 10 -9 0 -20 -5 -23 -10 -4 -6 -10 -8 -15 -5 -10 6 -26
-13 -33 -40 -4 -11 -5 5 -3 35 1 31 11 73 22 95 23 48 78 88 108 79 12 -3 62
-37 113 -75z m12490 75 c-3 -3 -12 -4 -19 -1 -8 3 -5 6 6 6 11 1 17 -2 13 -5z
m-48 -8 c-5 -5 -192 -50 -277 -67 -88 -17 -89 -4 0 15 40 9 111 24 158 35 85
19 127 25 119 17z m-3859 -26 c36 -5 81 -10 101 -10 35 0 66 -20 52 -34 -4 -3
-8 -16 -10 -27 -2 -12 -11 -40 -21 -62 l-18 -41 -64 2 c-36 1 -97 5 -137 8
l-72 6 26 57 c14 31 30 71 36 89 7 22 15 31 26 28 9 -3 45 -10 81 -16z m3071
-12 c32 -18 59 -36 59 -39 0 -3 -24 -9 -52 -13 -53 -6 -110 -23 -137 -40 -8
-5 -12 -5 -9 0 4 5 18 35 31 67 14 31 31 57 37 57 6 0 38 -15 71 -32z m-11294
-59 c18 -12 52 -48 74 -80 43 -63 85 -96 161 -124 26 -10 45 -22 42 -27 -4 -6
2 -8 15 -3 11 3 28 2 37 -3 13 -7 11 -9 -12 -9 -16 -1 -38 -3 -49 -5 -20 -5
-38 -51 -31 -81 2 -9 0 -15 -5 -11 -16 10 -9 -7 21 -53 17 -25 29 -47 27 -50
-8 -7 -133 188 -175 272 -25 50 -61 102 -96 138 -61 61 -63 69 -9 36z m11720
15 c-3 -3 -12 -4 -19 -1 -8 3 -5 6 6 6 11 1 17 -2 13 -5z m-57 -14 c-34 -11
-60 -11 -35 0 11 5 29 8 40 8 16 0 15 -2 -5 -8z m-183 -46 c-3 -3 -12 -4 -19
-1 -8 3 -5 6 6 6 11 1 17 -2 13 -5z m-140 -30 c-3 -3 -12 -4 -19 -1 -8 3 -5 6
6 6 11 1 17 -2 13 -5z m-10892 -34 c-3 -5 -14 -10 -23 -10 -15 0 -15 2 -2 10
20 13 33 13 25 0z m-45 -14 c0 -2 -8 -10 -17 -17 -16 -13 -17 -12 -4 4 13 16
21 21 21 13z m7837 -15 c76 -1 81 -2 76 -21 -3 -11 0 -49 6 -86 7 -36 11 -68
9 -69 -2 -2 -75 6 -163 16 -88 10 -170 18 -183 19 -36 0 -36 23 2 81 51 79 47
76 112 68 33 -4 96 -8 141 -8z m-8830 -53 c-3 -8 -6 -5 -6 6 -1 11 2 17 5 13
3 -3 4 -12 1 -19z m1163 -23 c19 -19 29 -35 24 -35 -6 0 -17 -11 -24 -25 -7
-14 -19 -25 -25 -25 -16 0 -95 58 -95 69 0 10 60 51 76 51 5 0 25 -16 44 -35z
m-1153 -17 c-3 -8 -6 -5 -6 6 -1 11 2 17 5 13 3 -3 4 -12 1 -19z m298 2 c3 -6
-1 -7 -9 -4 -18 7 -21 14 -7 14 6 0 13 -4 16 -10z m-267 -95 c0 -5 -6 4 -13
20 -8 17 -14 37 -14 45 0 8 7 -1 14 -20 7 -19 13 -39 13 -45z m843 32 c-13
-13 -26 -3 -16 12 3 6 11 8 17 5 6 -4 6 -10 -1 -17z m343 -52 c11 -54 14 -70
21 -90 4 -11 -5 -2 -18 20 -14 22 -37 55 -52 73 -27 32 -27 33 -9 53 l18 20
17 -23 c10 -12 20 -36 23 -53z m1567 36 l24 -19 -47 -21 c-72 -31 -160 -46
-199 -35 -33 10 -33 10 66 51 115 48 124 50 156 24z m-1941 -6 c0 -8 -2 -15
-4 -15 -2 0 -6 7 -10 15 -3 8 -1 15 4 15 6 0 10 -7 10 -15z m7904 -21 l178
-18 19 -44 c11 -24 19 -47 19 -51 0 -7 -281 -65 -444 -92 -78 -13 -199 -7
-265 13 l-44 13 107 68 106 69 87 -11 c49 -6 97 -9 108 -6 11 2 36 4 55 5 l35
2 -35 8 c-19 4 -77 13 -128 20 -91 13 -92 13 -75 32 14 16 26 19 58 15 22 -3
120 -14 219 -23z m-8691 -34 c3 -11 2 -18 -3 -15 -4 3 -10 14 -13 25 -3 11 -2
18 3 15 4 -3 10 -14 13 -25z m2453 -39 c13 -10 47 -25 75 -31 46 -11 61 -10
164 16 111 27 114 27 201 13 97 -15 191 -18 269 -7 28 4 41 3 30 -1 -15 -6 -6
-10 35 -14 30 -3 93 -15 140 -26 47 -12 139 -30 205 -41 75 -12 129 -27 145
-39 95 -70 161 -80 580 -91 184 -5 360 -14 390 -20 30 -5 219 -30 420 -55 201
-25 457 -59 570 -75 321 -46 925 -109 936 -97 2 2 -115 18 -259 36 -144 17
-361 47 -482 66 -330 51 -763 111 -1009 139 -120 14 -221 28 -224 31 -3 3 17
5 44 5 27 0 107 7 178 15 131 15 229 11 466 -15 47 -5 204 -23 350 -40 145
-16 271 -30 280 -31 10 0 9 -3 -5 -8 -12 -5 7 -8 50 -7 68 1 397 -24 597 -45
54 -5 153 -21 220 -34 68 -13 167 -29 220 -36 54 -7 96 -14 94 -16 -2 -2 -57
-13 -122 -24 -117 -19 -677 -126 -804 -153 -129 -28 -159 -28 -310 -2 -307 53
-781 117 -1904 257 -370 46 -959 130 -1156 164 -274 48 -481 77 -599 85 -73 5
-136 12 -139 15 -3 3 6 5 19 6 13 0 74 17 134 38 128 44 167 48 201 22z m9683
-68 c6 -16 33 -104 61 -198 28 -93 85 -274 126 -402 41 -128 74 -237 74 -243
0 -5 -28 13 -62 41 -111 89 -285 183 -553 297 -230 97 -282 130 -393 241 l-93
94 78 23 c111 33 208 57 458 113 121 27 229 52 240 54 42 10 53 6 64 -20z
m-11295 -19 c3 -8 2 -12 -4 -9 -6 3 -10 10 -10 16 0 14 7 11 14 -7z m8157 -56
l40 -43 -28 -7 c-15 -4 -188 -40 -383 -78 -195 -39 -440 -89 -545 -111 -208
-44 -1195 -245 -1670 -340 -312 -62 -1094 -226 -1447 -303 -112 -24 -241 -52
-288 -61 -138 -27 -846 -184 -955 -211 -254 -64 -306 -87 -402 -178 -77 -72
-133 -159 -164 -256 -12 -36 -22 -66 -23 -67 -4 -5 -341 69 -348 75 -4 4 2 31
12 59 51 144 149 255 288 326 137 71 172 80 767 208 132 28 330 71 440 96 198
44 668 139 1315 268 184 36 369 75 410 85 87 21 428 89 780 154 135 25 400 78
590 116 753 154 1519 307 1553 309 10 0 36 -18 58 -41z m-6816 17 c39 -3 95
-8 125 -11 66 -7 502 -72 760 -113 226 -37 354 -53 665 -86 132 -14 416 -48
630 -75 215 -27 485 -61 600 -75 116 -14 345 -45 510 -70 165 -24 336 -49 380
-56 90 -13 110 -17 103 -24 -2 -3 -141 -32 -309 -66 -359 -72 -364 -72 -754
-14 -522 77 -663 97 -990 140 -665 86 -894 115 -1200 150 -170 20 -326 40
-345 45 -19 5 -127 23 -240 39 -280 41 -290 43 -290 50 0 4 -16 5 -36 3 -24
-3 -34 -1 -30 6 3 6 -1 8 -11 6 -10 -2 -38 0 -63 5 -32 6 -37 9 -17 10 15 1
27 6 27 11 0 13 -26 13 -51 -1 -11 -5 -37 -9 -57 -7 -32 3 -20 9 93 47 72 24
153 53 180 64 57 22 151 37 210 31 22 -2 72 -6 110 -9z m5845 -92 c0 -5 -130
-34 -288 -66 -158 -32 -327 -67 -377 -77 -65 -15 -108 -18 -156 -14 -102 10
-399 62 -359 63 252 9 649 45 890 80 129 20 290 27 290 14z m-7875 -94 c9 -17
15 -32 13 -34 -2 -2 -106 -22 -230 -44 -205 -37 -584 -116 -823 -172 -147 -35
-268 -77 -318 -109 -118 -79 -252 -277 -282 -417 -5 -25 -12 -33 -28 -33 -21
0 -132 16 -172 24 -11 3 -23 5 -27 5 -13 2 -9 65 8 122 27 92 81 183 150 251
110 109 219 153 554 222 118 25 278 58 355 75 232 49 712 138 762 140 16 1 27
-9 38 -30z m1480 -4 c55 -8 204 -30 330 -49 127 -19 291 -42 365 -51 74 -8
252 -29 395 -45 221 -26 702 -87 1130 -145 61 -8 227 -31 370 -50 143 -20 368
-51 500 -70 132 -18 291 -39 353 -46 61 -7 112 -16 112 -19 0 -10 -103 -32
-455 -96 l-309 -57 -126 17 c-69 10 -188 29 -265 42 -77 13 -246 37 -375 54
-448 57 -765 100 -785 104 -11 3 -186 28 -390 56 -203 28 -500 69 -660 91
-524 72 -599 85 -590 99 3 5 13 6 23 3 13 -4 13 -2 -3 10 l-20 16 20 15 c17
13 166 107 215 135 8 5 26 7 40 5 14 -2 70 -11 125 -19z m-1331 -124 c104 -94
222 -163 366 -212 52 -17 89 -22 185 -23 144 -1 169 8 255 90 59 56 60 57 107
51 27 -4 156 -20 288 -37 132 -16 413 -55 625 -85 212 -30 534 -75 715 -100
182 -25 375 -52 430 -60 55 -8 219 -30 365 -50 146 -21 366 -51 490 -69 l225
-32 -55 -12 c-378 -78 -736 -155 -780 -166 -382 -97 -490 -141 -600 -243 -126
-117 -210 -292 -210 -440 0 -63 14 -61 -180 -32 -77 11 -146 19 -152 17 -7 -3
62 -16 151 -30 90 -15 166 -29 169 -33 6 -5 21 -117 17 -123 -1 -1 -96 14
-212 33 -115 19 -329 52 -474 74 -145 22 -365 56 -489 76 -124 19 -328 51
-455 71 -126 19 -351 55 -500 80 -148 25 -389 63 -535 84 -228 34 -465 71
-1100 170 -298 47 -320 53 -342 93 -89 158 -48 359 106 525 90 96 153 127 363
177 216 52 216 52 475 16 128 -18 334 -48 458 -66 124 -19 398 -57 610 -85
212 -27 448 -59 525 -70 77 -10 280 -37 450 -60 292 -38 1000 -134 1470 -200
116 -16 255 -32 310 -35 87 -5 98 -4 82 8 -9 8 -70 21 -135 30 -64 9 -279 39
-477 67 -489 69 -619 87 -835 115 -102 13 -356 47 -565 74 -209 28 -522 68
-695 90 -173 23 -452 61 -620 86 -168 25 -398 57 -513 72 -114 15 -204 30
-200 33 12 10 257 64 542 120 140 28 257 52 259 55 13 13 36 1 86 -44z m916
-41 c0 -5 -5 -10 -11 -10 -5 0 -7 5 -4 10 3 6 8 10 11 10 2 0 4 -4 4 -10z
m8436 -37 c20 -27 17 -55 -11 -93 -14 -19 -25 -47 -25 -66 0 -22 -9 -41 -32
-63 l-31 -31 34 -32 35 -33 -59 -75 c-62 -77 -92 -134 -82 -150 4 -6 19 -10
36 -10 32 0 37 -14 15 -39 -22 -24 -86 -157 -117 -241 l-27 -75 -69 3 c-37 2
-153 9 -258 17 -336 25 -537 29 -300 6 77 -8 63 -8 -92 -6 -99 1 -185 5 -190
7 -4 2 -41 4 -81 3 -44 -1 -68 1 -60 6 8 5 -24 9 -77 10 -98 1 -177 7 -185 16
-3 3 47 2 110 -1 63 -3 174 -8 245 -10 110 -4 118 -3 55 4 -41 5 -187 13 -323
18 -137 6 -250 11 -251 13 -4 6 -174 434 -172 436 0 0 143 31 316 67 173 36
392 82 485 101 322 69 1000 207 1038 212 20 3 40 9 43 14 8 13 15 11 30 -8z
m-2207 -650 c45 -98 85 -185 87 -193 4 -13 -15 -15 -128 -18 -158 -3 -819 -46
-1038 -67 -85 -8 -258 -24 -384 -35 -134 -12 -233 -24 -236 -31 -11 -17 -17
20 -18 99 l0 72 36 9 c20 6 114 26 207 46 94 20 240 51 325 70 562 123 1032
223 1051 224 10 1 41 -55 98 -176z m5731 -245 c49 -81 67 -295 31 -374 -22
-47 -49 -70 -106 -86 -46 -12 -45 -13 52 -28 79 -13 133 -49 133 -88 0 -34
-47 -79 -118 -114 -61 -30 -74 -33 -162 -32 -122 0 -222 30 -270 79 l-33 34
13 90 c15 99 14 98 85 80 24 -6 49 -9 55 -7 16 5 -24 24 -77 38 -36 9 -43 15
-43 35 0 22 4 24 43 23 54 -2 141 37 200 91 45 42 95 125 117 196 17 55 39 95
50 95 6 0 19 -14 30 -32z m-5805 11 c-49 -4 -126 -7 -170 -6 l-80 1 75 6 c41
4 118 6 170 7 l95 0 -90 -8z m-1974 -116 c-2 -54 -5 -92 -8 -85 -3 6 -14 12
-26 12 -18 0 -19 -2 -7 -10 13 -8 13 -10 -2 -10 -9 0 -25 -3 -35 -6 -15 -5
-15 -4 -3 5 12 9 9 10 -13 9 -18 -2 -26 -7 -22 -15 3 -11 0 -11 -16 -2 -25 13
-70 7 -414 -51 -305 -51 -752 -115 -955 -135 -33 -3 -71 8 -60 18 26 20 344
102 750 193 140 31 379 85 530 119 151 34 277 61 280 59 3 -1 3 -46 1 -101z
m1676 100 c-20 -2 -52 -2 -70 0 -17 2 0 4 38 4 39 0 53 -2 32 -4z m1810 1 c-3
-3 -12 -4 -19 -1 -8 3 -5 6 6 6 11 1 17 -2 13 -5z m167 -5 c-2 -3 21 -5 50 -3
29 2 66 -1 82 -7 20 -6 -11 -7 -98 -4 -139 6 -225 24 -102 21 40 0 70 -4 68
-7z m-2219 -8 c-11 -10 -254 -27 -244 -17 3 4 48 10 100 15 136 12 154 12 144
2z m65 -1 c-8 -5 -24 -9 -35 -9 -16 1 -16 2 5 9 35 11 48 11 30 0z m2363 -7
c-7 -2 -21 -2 -30 0 -10 3 -4 5 12 5 17 0 24 -2 18 -5z m-2700 -10 c-7 -2 -19
-2 -25 0 -7 3 -2 5 12 5 14 0 19 -2 13 -5z m-46 -9 c-3 -3 -12 -4 -19 -1 -8 3
-5 6 6 6 11 1 17 -2 13 -5z m2680 -10 c-3 -3 -12 -4 -19 -1 -8 3 -5 6 6 6 11
1 17 -2 13 -5z m107 -112 c3 -5 -1 -9 -9 -9 -8 0 -12 4 -9 9 3 4 7 8 9 8 2 0
6 -4 9 -8z m-4048 -51 c-3 -4 -22 -11 -43 -14 -21 -3 -49 -9 -63 -12 -21 -5
-22 -4 -5 4 15 7 16 10 5 12 -8 1 10 5 40 9 30 4 59 7 63 8 5 1 6 -2 3 -7z
m-139 -17 c-3 -3 -12 -4 -19 -1 -8 3 -5 6 6 6 11 1 17 -2 13 -5z m-54 -11 c-7
-2 -21 -2 -30 0 -10 3 -4 5 12 5 17 0 24 -2 18 -5z m-6326 -53 l31 -14 -34
-95 c-20 -53 -50 -139 -69 -191 -18 -52 -61 -167 -95 -255 -34 -88 -104 -279
-156 -425 -156 -442 -145 -416 -179 -412 -17 2 -45 10 -64 18 -27 11 -32 18
-28 36 2 13 42 124 87 248 45 124 101 279 125 345 48 133 235 602 283 707 26
58 33 67 49 60 10 -5 32 -15 50 -22z m658 -40 c77 -11 144 -20 150 -21 5 0 1
-5 -10 -10 -15 -7 -9 -8 22 -4 42 5 249 -22 578 -75 99 -16 239 -38 310 -49
136 -21 704 -111 860 -136 50 -8 173 -26 275 -40 102 -14 262 -39 355 -55 94
-16 215 -36 270 -45 55 -8 188 -28 295 -45 345 -53 433 -69 444 -81 8 -9 8
-10 0 -6 -7 4 -15 0 -18 -9 -3 -8 -2 -12 4 -9 6 3 10 1 10 -5 0 -6 -6 -13 -14
-16 -8 -3 -13 -11 -10 -18 3 -7 -2 -28 -10 -48 l-15 -36 -133 24 c-73 13 -236
40 -363 60 -126 19 -273 44 -326 55 -52 10 -212 37 -355 59 -142 22 -331 54
-419 70 -88 16 -315 54 -505 85 -190 30 -475 78 -635 106 -159 28 -346 59
-415 70 -157 25 -201 32 -320 52 -52 9 -133 23 -180 31 -71 12 -77 14 -40 15
51 1 95 21 48 21 -24 0 -26 3 -19 22 4 13 19 25 32 29 l24 6 -25 11 c-35 15
-23 14 135 -8z m4449 -75 c-4 -8 -8 -15 -10 -15 -2 0 -4 7 -4 15 0 8 4 15 10
15 5 0 7 -7 4 -15z m-4313 -130 c222 -36 451 -74 509 -85 58 -10 195 -33 305
-50 186 -29 880 -145 1023 -171 61 -11 85 -29 38 -29 -13 0 -79 -16 -145 -35
-67 -19 -151 -42 -188 -50 -38 -8 -115 -26 -173 -40 -58 -14 -145 -34 -195
-45 -299 -63 -1894 -470 -1991 -507 -24 -9 -17 20 42 174 31 82 100 265 154
408 54 143 116 305 137 360 22 55 43 108 46 118 4 9 13 17 20 17 8 0 196 -29
418 -65z m6022 38 c-7 -2 -21 -2 -30 0 -10 3 -4 5 12 5 17 0 24 -2 18 -5z
m-2392 -509 c-21 -60 -48 -131 -60 -157 -11 -26 -47 -121 -80 -210 -33 -89
-85 -227 -116 -307 -52 -130 -152 -414 -268 -757 -23 -68 -46 -123 -52 -123
-5 0 -41 13 -80 29 -62 25 -70 31 -67 52 6 42 143 424 372 1034 10 28 60 156
111 285 l92 235 41 -3 c24 -2 62 4 91 16 28 10 51 18 52 17 2 -1 -15 -51 -36
-111z m6279 106 c0 -5 -5 -10 -11 -10 -5 0 -7 5 -4 10 3 6 8 10 11 10 2 0 4
-4 4 -10z m-8143 -16 c-3 -3 -12 -4 -19 -1 -8 3 -5 6 6 6 11 1 17 -2 13 -5z
m8146 -16 c3 -8 -5 -14 -19 -14 -13 -1 -24 2 -24 8 0 5 4 7 9 3 5 -3 12 -1 16
5 8 13 12 13 18 -2z m-7360 -35 c-7 -2 -21 -2 -30 0 -10 3 -4 5 12 5 17 0 24
-2 18 -5z m60 -10 c-7 -2 -21 -2 -30 0 -10 3 -4 5 12 5 17 0 24 -2 18 -5z m64
-9 c-3 -3 -12 -4 -19 -1 -8 3 -5 6 6 6 11 1 17 -2 13 -5z m236 -41 c-7 -2 -19
-2 -25 0 -7 3 -2 5 12 5 14 0 19 -2 13 -5z m124 -19 c-3 -3 -12 -4 -19 -1 -8
3 -5 6 6 6 11 1 17 -2 13 -5z m56 -11 c-7 -2 -19 -2 -25 0 -7 3 -2 5 12 5 14
0 19 -2 13 -5z m54 -9 c-3 -3 -12 -4 -19 -1 -8 3 -5 6 6 6 11 1 17 -2 13 -5z
m-2940 -230 c-3 -3 -12 -4 -19 -1 -8 3 -5 6 6 6 11 1 17 -2 13 -5z m6203 -344
c-8 -5 -24 -9 -35 -9 -16 1 -16 2 5 9 35 11 48 11 30 0z m-5513 -396 c-3 -3
-12 -4 -19 -1 -8 3 -5 6 6 6 11 1 17 -2 13 -5z m2739 -87 c2 -7 6 -24 9 -39 3
-17 1 -28 -5 -28 -6 0 -10 10 -8 23 2 12 -2 21 -8 20 -7 -1 -9 8 -6 23 4 24
14 25 18 1z m-1963 -74 c-7 -2 -21 -2 -30 0 -10 3 -4 5 12 5 17 0 24 -2 18 -5z
m194 -39 c-3 -3 -12 -4 -19 -1 -8 3 -5 6 6 6 11 1 17 -2 13 -5z m66 -11 c-7
-2 -21 -2 -30 0 -10 3 -4 5 12 5 17 0 24 -2 18 -5z m1622 -95 c-10 -13 -14
-16 -11 -8 3 8 9 24 13 35 4 11 8 14 11 7 2 -6 -4 -22 -13 -34z m-970 4 c-3
-3 -11 0 -18 7 -9 10 -8 11 6 5 10 -3 15 -9 12 -12z m285 -42 c0 -5 -5 -10
-11 -10 -5 0 -7 5 -4 10 3 6 8 10 11 10 2 0 4 -4 4 -10z m663 -5 c-3 -9 -8
-14 -10 -11 -3 3 -2 9 2 15 9 16 15 13 8 -4z"/>
<path d="M9900 17901 c0 -6 5 -13 10 -16 6 -3 10 1 10 9 0 9 -4 16 -10 16 -5
0 -10 -4 -10 -9z"/>
<path d="M9691 17047 c-13 -21 -12 -21 5 -5 10 10 16 20 13 22 -3 3 -11 -5
-18 -17z"/>
<path d="M4683 16883 c9 -2 23 -2 30 0 6 3 -1 5 -18 5 -16 0 -22 -2 -12 -5z"/>
<path d="M4188 16833 c6 -2 18 -2 25 0 6 3 1 5 -13 5 -14 0 -19 -2 -12 -5z"/>
<path d="M4638 16813 c7 -3 16 -2 19 1 4 3 -2 6 -13 5 -11 0 -14 -3 -6 -6z"/>
<path d="M4700 16810 c10 -6 11 -10 3 -10 -18 0 -16 -31 3 -58 20 -28 34 -28
34 1 0 33 -23 77 -40 77 -13 0 -13 -1 0 -10z"/>
<path d="M4761 16776 c-9 -10 -8 -16 4 -26 19 -16 41 1 32 24 -8 20 -21 20
-36 2z"/>
<path d="M3798 16773 c7 -3 16 -2 19 1 4 3 -2 6 -13 5 -11 0 -14 -3 -6 -6z"/>
<path d="M3753 16753 c9 -2 25 -2 35 0 9 3 1 5 -18 5 -19 0 -27 -2 -17 -5z"/>
<path d="M3978 16753 c7 -3 16 -2 19 1 4 3 -2 6 -13 5 -11 0 -14 -3 -6 -6z"/>
<path d="M3458 16733 c6 -2 18 -2 25 0 6 3 1 5 -13 5 -14 0 -19 -2 -12 -5z"/>
<path d="M4045 16728 c-16 -4 -36 -6 -42 -3 -7 2 -13 0 -13 -4 0 -8 80 -22 88
-15 2 1 2 9 0 17 -2 10 -10 12 -33 5z"/>
<path d="M3955 16720 c-3 -5 1 -10 10 -10 9 0 13 5 10 10 -3 6 -8 10 -10 10
-2 0 -7 -4 -10 -10z"/>
<path d="M9250 16704 c0 -8 5 -12 10 -9 6 3 10 10 10 16 0 5 -4 9 -10 9 -5 0
-10 -7 -10 -16z"/>
<path d="M3423 16703 c9 -2 25 -2 35 0 9 3 1 5 -18 5 -19 0 -27 -2 -17 -5z"/>
<path d="M4995 16691 c-3 -5 -1 -12 5 -16 5 -3 10 1 10 9 0 18 -6 21 -15 7z"/>
<path d="M4963 16618 c-2 -16 1 -18 10 -9 7 7 8 14 1 21 -6 6 -10 2 -11 -12z"/>
<path d="M4866 16603 c-11 -11 -6 -23 9 -23 8 0 15 4 15 9 0 13 -16 22 -24 14z"/>
<path d="M4170 16525 c0 -8 5 -15 10 -15 6 0 10 7 10 15 0 8 -4 15 -10 15 -5
0 -10 -7 -10 -15z"/>
<path d="M4320 16500 c0 -11 68 -25 77 -16 4 3 -3 6 -15 6 -12 0 -22 5 -22 10
0 6 -9 10 -20 10 -11 0 -20 -4 -20 -10z"/>
<path d="M18750 12914 c-185 -37 -362 -145 -552 -335 -265 -267 -444 -678
-464 -1069 -8 -140 4 -223 51 -361 61 -181 128 -264 267 -332 106 -53 186 -71
278 -63 158 14 293 86 436 232 106 108 161 181 245 324 139 239 224 503 264
813 39 309 -2 511 -135 659 -75 84 -170 129 -282 133 -45 2 -94 1 -108 -1z
m152 -59 c3 -4 -45 -116 -57 -132 -1 -2 -34 11 -74 28 -40 17 -75 29 -77 27
-2 -3 28 -20 66 -38 39 -19 70 -37 70 -41 0 -21 -74 -159 -86 -159 -19 0 -121
49 -134 65 -9 11 10 73 57 183 4 10 -1 13 -20 10 -14 -1 -26 2 -26 7 -1 6 5
10 12 11 6 0 21 5 31 9 13 6 21 4 24 -3 4 -14 32 -16 32 -3 0 28 34 41 104 41
40 0 75 -2 78 -5z m89 -32 c35 -18 49 -32 49 -47 0 -33 -33 -116 -46 -116 -9
0 -119 46 -131 55 -4 3 68 135 74 135 3 0 27 -12 54 -27z m-361 -83 c-14 -48
-44 -115 -53 -121 -5 -4 -39 6 -74 22 -36 16 -68 29 -73 29 -8 0 -60 -101 -60
-117 0 -6 -6 -16 -14 -23 -12 -9 -25 -7 -62 10 l-48 21 40 40 c22 22 58 46 80
54 23 8 40 20 42 32 2 10 9 23 14 28 8 7 9 6 4 -2 -12 -21 4 -15 54 22 26 19
63 41 81 49 29 12 36 12 55 -2 16 -13 20 -22 14 -42z m486 -2 c28 -34 74 -123
74 -145 0 -21 -32 -15 -108 22 l-72 34 21 53 c11 28 23 56 25 60 10 16 33 7
60 -24z m-192 -68 c36 -17 66 -32 66 -34 0 -8 -63 -142 -72 -153 -7 -8 -26 -4
-74 15 -56 23 -64 30 -59 48 6 27 63 154 68 154 2 0 34 -14 71 -30z m-436 -40
c18 -11 37 -18 43 -15 5 4 9 1 9 -4 0 -6 7 -11 15 -11 21 0 19 -13 -15 -80
l-30 -60 -53 21 c-28 12 -60 24 -69 26 -10 3 -18 9 -18 14 0 21 61 129 73 129
6 0 27 -9 45 -20z m598 -35 c57 -26 74 -38 67 -47 -6 -7 -13 -22 -16 -33 l-7
-20 15 20 c28 38 37 46 48 42 18 -6 35 -67 43 -152 l7 -76 -59 26 c-32 15 -65
29 -72 32 -9 4 -12 16 -8 35 3 18 2 27 -4 23 -6 -3 -10 -13 -10 -22 0 -12 -7
-14 -27 -10 -52 10 -123 46 -123 62 0 14 60 155 66 155 1 0 37 -16 80 -35z
m-419 -40 c41 -19 73 -39 71 -43 -45 -113 -52 -123 -83 -118 l-30 5 28 -15
c15 -8 27 -17 27 -20 0 -2 -11 -27 -25 -55 -19 -37 -30 -49 -43 -45 -9 3 -43
12 -76 21 -55 16 -58 19 -53 44 9 42 36 101 48 101 5 0 24 -7 40 -16 17 -8 36
-13 42 -11 7 2 -9 15 -35 28 -27 12 -48 27 -48 32 0 13 52 127 58 127 2 0 38
-16 79 -35z m-347 -41 c17 -3 30 -7 30 -9 0 -4 -52 -128 -56 -134 -6 -7 -123
41 -135 56 -10 11 -4 22 32 59 36 37 48 44 71 39 16 -3 42 -8 58 -11z m525
-29 c34 -15 55 -31 52 -38 -2 -7 -15 -40 -27 -75 -17 -47 -27 -61 -38 -57 -12
4 -12 3 -3 -9 6 -7 8 -22 5 -32 -17 -51 27 28 52 94 16 40 34 72 41 72 16 0
125 -40 139 -52 8 -6 0 -37 -31 -111 -23 -56 -45 -110 -48 -119 -8 -23 -20
-23 -103 6 -69 23 -74 29 -59 71 6 15 3 13 -10 -5 -10 -14 -20 -27 -21 -29 -6
-7 -144 41 -144 50 0 27 44 109 59 109 14 0 14 2 1 10 -13 8 -10 19 19 75 19
36 40 65 47 65 6 0 37 -11 69 -25z m-343 -45 c3 -11 -45 -130 -53 -130 -14 0
-123 42 -133 51 -8 7 25 100 45 125 7 8 27 4 74 -15 36 -14 66 -28 67 -31z
m-264 -70 c23 -7 42 -16 42 -19 0 -20 -59 -156 -69 -159 -14 -5 -120 36 -140
54 -12 11 -10 19 9 56 12 24 32 54 43 67 16 17 18 25 10 28 -7 3 -13 9 -13 14
0 5 17 1 38 -10 20 -10 56 -24 80 -31z m946 -30 c26 -11 49 -27 53 -36 9 -24
-15 -238 -38 -348 -28 -130 -28 -129 -52 -122 -20 5 -21 4 -4 -8 9 -7 17 -19
17 -26 0 -18 -41 -154 -50 -163 -8 -9 -100 33 -100 46 0 4 14 42 31 83 27 65
34 74 57 74 23 0 24 1 8 13 -16 12 -15 17 9 82 15 39 33 81 41 93 16 24 13 34
-9 38 -15 2 -113 41 -138 54 -16 9 -15 18 25 113 23 56 46 110 49 121 8 21 27
18 101 -14z m-841 -4 c18 -8 49 -21 69 -30 l37 -15 -30 -68 c-17 -37 -35 -72
-40 -77 -9 -10 -126 21 -135 36 -5 8 29 114 48 151 11 21 12 21 51 3z m-287
-31 c-6 -19 -17 -35 -24 -35 -10 0 -10 5 -1 23 12 22 29 47 34 47 1 0 -3 -16
-9 -35z m507 -41 c34 -9 63 -17 65 -19 2 -1 -6 -22 -16 -46 -11 -24 -25 -60
-32 -79 -7 -19 -17 -39 -21 -44 -9 -10 -159 44 -159 57 0 5 16 42 35 84 26 56
39 74 50 69 9 -3 44 -13 78 -22z m-533 -34 c0 -5 -5 -10 -11 -10 -5 0 -7 -5
-4 -11 4 -5 0 -18 -8 -27 -9 -9 -16 -20 -16 -25 -3 -36 -61 -96 -61 -61 0 23
56 115 65 106 4 -4 5 -1 1 6 -9 15 1 32 20 32 8 0 14 -4 14 -10z m173 -60 c10
-9 -47 -140 -61 -140 -11 0 -154 48 -159 54 -5 5 22 58 54 107 l24 37 67 -26
c37 -13 71 -28 75 -32z m509 40 c29 -11 62 -25 73 -30 11 -5 55 -19 98 -31 43
-12 80 -26 83 -30 5 -9 -41 -136 -57 -155 -8 -10 -21 -9 -62 3 -29 8 -64 21
-79 29 -27 14 -27 14 -12 56 19 54 10 62 -12 9 -9 -22 -22 -41 -30 -41 -17 0
-116 39 -127 50 -10 9 50 160 64 160 4 0 32 -9 61 -20z m-387 -80 c41 -17 45
-23 39 -42 -17 -55 -51 -113 -67 -116 -24 -5 -127 37 -127 52 0 6 14 40 30 75
34 71 33 70 125 31z m206 -77 c8 -8 6 -28 -10 -75 -32 -96 -29 -94 -99 -67
-99 38 -97 36 -66 115 15 38 32 72 36 75 11 7 123 -32 139 -48z m530 31 c35
-14 68 -29 72 -34 6 -5 -45 -161 -58 -178 -1 -1 -37 14 -79 34 -61 28 -76 39
-71 52 4 10 14 37 22 62 27 78 32 90 41 90 5 0 37 -12 73 -26z m-1121 -31 c-1
-32 -45 -147 -57 -151 -20 -6 -15 26 15 100 26 66 42 85 42 51z m120 -13 c36
-13 70 -27 77 -32 8 -7 3 -30 -20 -86 -17 -42 -31 -78 -32 -80 -3 -3 -152 45
-165 53 -7 4 13 76 45 164 3 7 11 11 18 8 6 -2 41 -15 77 -27z m580 -11 c30
-11 59 -24 64 -29 5 -5 -2 -40 -18 -85 -21 -57 -33 -75 -47 -75 -15 0 -126 37
-137 45 -7 6 61 165 71 165 7 0 37 -9 67 -21z m-379 -67 l47 -20 -25 -76 c-13
-42 -30 -76 -36 -76 -25 0 -137 44 -137 54 0 12 36 111 51 138 10 19 11 19
100 -20z m564 -3 c33 -12 62 -24 64 -26 9 -6 -55 -173 -66 -173 -6 0 -46 15
-87 34 l-75 34 37 82 c27 59 41 80 52 76 8 -2 42 -15 75 -27z m-350 -89 c7 -6
14 -8 17 -5 6 6 104 -22 138 -40 14 -7 58 -25 98 -41 40 -15 77 -33 83 -40 11
-13 -32 -134 -55 -153 -8 -7 -35 0 -86 22 -74 32 -75 34 -73 67 l3 35 -16 -27
c-8 -16 -19 -28 -24 -28 -25 0 -130 54 -130 68 0 11 -3 12 -14 3 -11 -9 -29
-6 -80 15 -36 14 -66 31 -66 38 0 6 9 39 20 71 12 33 23 65 25 72 4 11 133
-35 160 -57z m508 24 c87 -36 89 -39 67 -77 -9 -18 -26 -53 -35 -79 -10 -27
-24 -48 -32 -48 -13 0 -133 57 -133 63 0 7 49 148 55 157 8 13 7 14 78 -16z
m-1108 -51 l-5 -28 12 28 c15 34 36 35 126 1 l69 -25 -41 -100 c-22 -54 -45
-99 -51 -99 -5 1 -39 11 -75 24 -73 26 -78 36 -52 114 8 24 12 45 9 48 -3 3
-12 -20 -21 -50 -16 -53 -24 -64 -39 -50 -5 6 14 84 35 137 6 15 17 27 24 27
10 0 13 -8 9 -27z m323 -55 c46 -17 52 -22 46 -41 -15 -48 -15 -51 2 -22 9 17
18 32 20 34 4 4 134 -50 134 -56 0 -2 -7 -16 -16 -31 l-16 -27 24 28 c29 33
34 33 103 0 35 -17 55 -33 55 -44 0 -25 -71 -219 -80 -219 -10 0 -197 79 -323
136 -53 24 -101 44 -106 44 -5 0 -14 6 -20 14 -9 11 -3 36 30 115 48 113 38
109 147 69z m730 -91 c52 -25 60 -41 39 -89 -8 -18 -19 -45 -25 -60 -14 -33
-19 -33 -97 -5 -40 15 -61 28 -63 41 -2 10 8 48 23 83 31 73 33 73 123 30z
m-1099 -42 c6 3 25 -1 43 -9 18 -8 50 -22 71 -30 20 -8 37 -21 37 -28 0 -6
-17 -54 -37 -105 -41 -103 -44 -105 -117 -73 -52 24 -54 30 -31 125 17 73 18
78 5 70 -6 -4 -10 9 -10 31 0 31 2 35 15 24 8 -6 19 -9 24 -5z m1265 -69 c-4
-12 -17 -45 -30 -74 l-23 -53 -50 25 -49 25 25 67 c13 37 26 71 29 76 3 5 28
-4 55 -18 41 -23 48 -31 43 -48z m-426 13 c54 -24 72 -37 69 -48 -3 -9 -22
-56 -42 -104 -20 -49 -35 -91 -32 -93 2 -3 21 35 42 83 53 122 53 122 118 99
28 -10 66 -24 82 -32 17 -7 51 -21 77 -31 25 -10 46 -22 45 -28 -1 -17 -79
-179 -95 -197 -8 -10 -27 -18 -41 -18 -20 0 -22 -3 -12 -9 13 -8 12 -14 -3
-43 -21 -40 -95 -123 -102 -116 -2 3 2 11 11 18 8 7 15 24 15 39 -1 24 -2 22
-19 -13 -11 -22 -17 -45 -15 -50 2 -6 -5 -17 -15 -23 -20 -13 -38 -8 -128 33
-64 29 -46 12 27 -25 l74 -38 -34 -33 c-19 -18 -68 -54 -109 -82 -98 -64 -105
-54 -56 80 20 53 40 113 45 132 8 31 7 33 -5 17 -16 -21 -24 -20 -121 24 -58
26 -64 32 -59 52 7 21 6 21 -8 3 -14 -19 -18 -18 -128 28 -63 27 -115 49 -116
50 -2 2 13 49 32 106 19 57 35 106 35 109 -1 16 -32 -53 -56 -124 -15 -44 -28
-81 -29 -83 -3 -3 -177 78 -191 90 -9 6 -4 27 16 76 16 37 35 84 43 104 l16
37 69 -28 c38 -16 84 -35 103 -44 19 -8 93 -40 164 -70 105 -45 129 -59 127
-74 -2 -17 -2 -17 8 -1 14 22 8 25 287 -109 45 -22 86 -37 91 -34 9 6 25 101
17 101 -2 0 -9 -18 -15 -40 -6 -22 -16 -40 -23 -40 -16 0 -138 58 -157 74 -8
8 -52 28 -97 46 -46 18 -83 36 -83 41 0 4 9 32 21 61 11 29 27 73 35 98 9 25
17 51 20 59 2 7 10 11 17 8 6 -3 45 -20 85 -38z m-828 -215 c22 -9 40 -20 40
-24 0 -4 -11 -38 -25 -75 -14 -37 -24 -69 -22 -72 8 -7 25 23 42 75 9 29 23
56 31 59 8 3 35 -5 62 -17 26 -13 66 -31 90 -41 47 -21 50 -29 23 -85 -10 -21
-24 -56 -32 -76 -7 -21 -20 -38 -28 -38 -8 0 -52 18 -97 40 -95 46 -107 63
-130 178 -20 106 -22 103 46 76z m440 -184 c84 -33 83 -29 43 -133 -20 -51
-37 -94 -39 -96 -6 -7 -226 93 -231 106 -5 13 3 38 46 135 l20 47 53 -18 c29
-10 78 -29 108 -41z m185 -80 c70 -33 86 -44 81 -58 -41 -109 -73 -182 -81
-182 -13 0 -146 67 -159 80 -4 4 4 39 19 77 14 37 31 80 37 96 6 15 12 27 13
27 1 0 42 -18 90 -40z m-532 -15 c89 -40 104 -58 72 -85 -8 -7 -20 -30 -27
-51 -6 -22 -14 -39 -18 -39 -10 0 -76 91 -98 135 -26 52 -36 88 -25 84 5 -2
48 -22 96 -44z m221 -99 c54 -24 102 -48 107 -53 6 -6 0 -27 -14 -54 -13 -24
-27 -56 -31 -72 -6 -24 -10 -26 -34 -21 -44 10 -155 63 -180 86 -24 24 -24 30
10 111 11 26 26 47 33 47 6 0 56 -20 109 -44z m336 -166 c0 -28 -215 -65 -248
-42 -10 6 -8 21 8 67 11 32 24 63 30 70 7 8 35 -1 110 -38 55 -27 100 -53 100
-57z"/>
<path d="M19117 12483 c-4 -3 -7 -11 -7 -17 0 -6 5 -5 12 2 6 6 9 14 7 17 -3
3 -9 2 -12 -2z"/>
<path d="M18776 12144 c-9 -24 -2 -26 12 -4 7 11 8 20 3 20 -5 0 -12 -7 -15
-16z"/>
<path d="M18626 11783 c-6 -14 -5 -15 5 -6 7 7 10 15 7 18 -3 3 -9 -2 -12 -12z"/>
<path d="M18325 11559 c-4 -6 -5 -12 -2 -15 2 -3 7 2 10 11 7 17 1 20 -8 4z"/>
<path d="M18901 11439 c-10 -24 -21 -57 -24 -74 l-6 -30 14 30 c8 17 14 36 15
43 0 7 7 24 16 38 9 13 14 27 10 31 -3 3 -14 -14 -25 -38z"/>
<path d="M18417 11275 c-15 -30 -25 -55 -22 -55 7 0 57 101 53 106 -2 2 -16
-21 -31 -51z"/>
<path d="M18632 11275 c-17 -37 -14 -45 4 -12 9 16 14 31 11 33 -2 2 -9 -7
-15 -21z"/>
<path d="M18601 11203 c-10 -26 -10 -27 4 -9 8 11 15 23 15 28 0 15 -7 8 -19
-19z"/>
<path d="M13180 11619 c-112 -12 -265 -54 -349 -95 -89 -44 -225 -172 -259
-245 -25 -52 -29 -124 -8 -172 19 -46 84 -106 130 -119 41 -13 32 -14 314 47
348 75 470 54 707 -124 188 -141 277 -172 396 -138 64 19 137 65 155 98 18 33
17 135 -2 199 -32 108 -146 300 -178 300 -7 0 -31 14 -54 31 -30 22 -48 29
-64 24 -16 -4 -19 -3 -10 3 11 7 7 14 -17 31 -17 13 -29 27 -26 31 3 5 -17 21
-45 35 -44 22 -82 31 -167 38 -11 1 -19 5 -17 8 2 4 -3 10 -12 13 -9 4 -13 2
-8 -5 4 -7 0 -9 -12 -6 -73 21 -162 38 -239 47 -100 11 -127 11 -235 -1z"/>
<path d="M12552 10509 c2 -8 23 -23 47 -35 36 -17 46 -29 66 -78 28 -68 46
-90 102 -123 57 -33 139 -41 198 -19 42 17 125 95 125 119 0 13 71 4 305 -38
544 -98 638 -115 656 -115 24 0 26 37 2 44 -33 9 -517 95 -768 136 -137 23
-268 45 -290 50 -22 5 -116 20 -210 34 -93 14 -185 28 -204 32 -26 6 -33 4
-29 -7z"/>
<path d="M10399 10193 c-13 -16 -12 -17 4 -4 9 7 17 15 17 17 0 8 -8 3 -21
-13z"/>
<path d="M10352 10133 c-30 -46 -24 -52 7 -7 13 19 22 36 20 38 -2 2 -14 -12
-27 -31z"/>
<path d="M13035 9599 c-4 -6 -5 -12 -2 -15 2 -3 7 2 10 11 7 17 1 20 -8 4z"/>
<path d="M13511 9504 c0 -11 3 -14 6 -6 3 7 2 16 -1 19 -3 4 -6 -2 -5 -13z"/>
<path d="M11155 8864 c-83 -29 -184 -129 -158 -155 8 -8 21 -1 48 30 20 22 66
55 101 72 57 28 70 31 131 26 37 -3 79 -8 92 -12 37 -12 22 16 -20 37 -41 22
-137 23 -194 2z"/>
<path d="M11827 8539 c7 -7 15 -10 18 -7 3 3 -2 9 -12 12 -14 6 -15 5 -6 -5z"/>
<path d="M11868 8543 c7 -3 16 -2 19 1 4 3 -2 6 -13 5 -11 0 -14 -3 -6 -6z"/>
<path d="M10928 8333 c6 -2 18 -2 25 0 6 3 1 5 -13 5 -14 0 -19 -2 -12 -5z"/>
<path d="M16498 9698 c5 -5 16 -8 23 -6 8 3 3 7 -10 11 -17 4 -21 3 -13 -5z"/>
<path d="M14823 9092 c-87 -38 -105 -52 -33 -27 50 18 60 19 60 4 0 -5 -4 -7
-10 -4 -5 3 -20 -3 -32 -14 -12 -12 -27 -21 -33 -21 -6 0 -22 -11 -34 -24 -13
-14 -33 -26 -44 -28 -11 -2 -22 -9 -25 -16 -8 -26 73 5 203 79 90 51 93 53 97
68 6 28 -64 20 -149 -17z"/>
<path d="M11215 8290 c-3 -6 1 -7 9 -4 18 7 21 14 7 14 -6 0 -13 -4 -16 -10z"/>
<path d="M10837 8165 c3 -8 9 -12 14 -9 12 7 11 11 -5 17 -10 4 -13 1 -9 -8z"/>
<path d="M11238 8173 c7 -3 16 -2 19 1 4 3 -2 6 -13 5 -11 0 -14 -3 -6 -6z"/>
<path d="M11290 8165 c7 -8 20 -15 29 -15 13 1 13 3 -3 15 -26 19 -42 19 -26
0z"/>
<path d="M15940 8091 c16 -10 123 -32 129 -26 3 4 -55 20 -109 30 -24 4 -30 3
-20 -4z"/>
<path d="M10108 7463 c6 -2 18 -2 25 0 6 3 1 5 -13 5 -14 0 -19 -2 -12 -5z"/>
<path d="M10163 7453 c9 -2 23 -2 30 0 6 3 -1 5 -18 5 -16 0 -22 -2 -12 -5z"/>
<path d="M15476 7061 c-9 -14 26 -23 38 -10 8 9 8 10 -1 5 -7 -4 -13 -2 -13 3
0 13 -17 14 -24 2z"/>
<path d="M15645 7023 c17 -2 40 -9 52 -15 13 -6 26 -8 30 -5 3 4 0 7 -8 7 -11
0 -12 2 -1 9 9 5 -9 8 -45 8 -32 0 -44 -2 -28 -4z"/>
<path d="M15760 7000 c-9 -6 -10 -10 -3 -10 6 0 15 5 18 10 8 12 4 12 -15 0z"/>
<path d="M13340 7276 c0 -2 7 -7 16 -10 8 -3 12 -2 9 4 -6 10 -25 14 -25 6z"/>
<path d="M12798 6712 c-28 -16 -38 -42 -17 -42 5 0 8 4 4 9 -3 5 3 12 14 16
11 3 22 12 25 20 7 18 7 18 -26 -3z"/>
<path d="M6055 6625 c-16 -13 -25 -24 -20 -24 13 -1 26 9 44 32 19 24 11 21
-24 -8z"/>
<path d="M6153 6544 c-3 -8 -1 -20 5 -26 7 -7 10 -2 9 16 -2 30 -5 32 -14 10z"/>
<path d="M6156 6435 c-3 -8 -1 -15 4 -15 6 0 10 7 10 15 0 8 -2 15 -4 15 -2 0
-6 -7 -10 -15z"/>
<path d="M13173 5758 c-46 -59 -42 -228 4 -228 29 0 82 37 103 72 24 40 26
114 4 146 -12 17 -25 22 -58 22 -24 0 -48 -6 -53 -12z"/>
<path d="M14012 5644 c-34 -23 -52 -67 -52 -125 0 -45 4 -55 34 -85 72 -72
176 -19 176 90 0 46 -27 114 -51 126 -27 15 -82 12 -107 -6z"/>
<path d="M13188 5399 c-75 -22 -107 -93 -72 -162 74 -146 235 -163 365 -38 40
39 49 54 49 82 0 70 -83 114 -230 123 -41 3 -92 0 -112 -5z"/>
<path d="M13241 5029 c-30 -21 -60 -39 -68 -39 -7 0 -13 -4 -13 -10 0 -20 48
-9 88 20 23 17 48 30 55 30 7 0 36 -18 65 -39 55 -42 98 -57 132 -46 33 11 23
25 -19 25 -31 0 -51 10 -102 50 -35 27 -68 49 -74 49 -5 0 -34 -18 -64 -40z"/>
<path d="M15152 4610 c0 -14 4 -36 8 -50 l8 -25 0 25 c0 14 -4 36 -8 50 l-8
25 0 -25z"/>
<path d="M6062 5494 c10 -10 20 -16 22 -13 3 3 -5 11 -17 18 -21 13 -21 12 -5
-5z"/>
<path d="M4647 5051 c-4 -17 -3 -21 5 -13 5 5 8 16 6 23 -3 8 -7 3 -11 -10z"/>
<path d="M6655 4919 c-4 -5 -11 -7 -16 -4 -5 3 -6 -1 -2 -11 5 -14 3 -15 -15
-5 -13 7 -22 8 -22 2 0 -15 35 -22 61 -13 13 5 30 7 38 4 8 -3 11 0 7 7 -7 11
43 16 124 11 19 -1 32 2 28 6 -12 11 -197 14 -203 3z"/>
<path d="M6743 4893 c9 -2 23 -2 30 0 6 3 -1 5 -18 5 -16 0 -22 -2 -12 -5z"/>
<path d="M6675 4870 c-26 -7 -24 -8 20 -9 36 0 46 2 35 9 -8 5 -17 9 -20 9 -3
-1 -18 -5 -35 -9z"/>
<path d="M6568 4823 c7 -3 16 -2 19 1 4 3 -2 6 -13 5 -11 0 -14 -3 -6 -6z"/>
<path d="M9153 4733 c9 -2 23 -2 30 0 6 3 -1 5 -18 5 -16 0 -22 -2 -12 -5z"/>
<path d="M6178 4793 c7 -3 16 -2 19 1 4 3 -2 6 -13 5 -11 0 -14 -3 -6 -6z"/>
<path d="M5812 4748 c-35 -6 -61 -12 -59 -15 6 -5 167 17 167 23 0 6 -36 3
-108 -8z"/>
<path d="M6850 4679 c0 -11 30 -12 48 0 9 5 3 8 -17 9 -17 0 -31 -4 -31 -9z"/>
<path d="M6912 4670 c-10 -17 -10 -20 3 -20 8 0 15 9 15 20 0 11 -1 20 -3 20
-1 0 -8 -9 -15 -20z"/>
<path d="M6754 4653 c7 -7 87 -5 95 3 2 2 -20 4 -49 4 -29 0 -50 -3 -46 -7z"/>
<path d="M6708 4623 c6 -2 18 -2 25 0 6 3 1 5 -13 5 -14 0 -19 -2 -12 -5z"/>
<path d="M6706 4601 c-10 -4 23 -6 75 -4 127 5 144 11 34 11 -49 0 -99 -3
-109 -7z"/>
<path d="M6603 4593 c15 -2 39 -2 55 0 15 2 2 4 -28 4 -30 0 -43 -2 -27 -4z"/>
<path d="M6258 4583 c7 -3 16 -2 19 1 4 3 -2 6 -13 5 -11 0 -14 -3 -6 -6z"/>
<path d="M6298 4583 c7 -3 16 -2 19 1 4 3 -2 6 -13 5 -11 0 -14 -3 -6 -6z"/>
<path d="M6353 4583 c15 -2 37 -2 50 0 12 2 0 4 -28 4 -27 0 -38 -2 -22 -4z"/>
<path d="M6438 4583 c6 -2 18 -2 25 0 6 3 1 5 -13 5 -14 0 -19 -2 -12 -5z"/>
<path d="M6488 4583 c6 -2 18 -2 25 0 6 3 1 5 -13 5 -14 0 -19 -2 -12 -5z"/>
<path d="M5202 4521 c-11 -6 -10 -10 0 -19 11 -8 14 -7 14 9 0 10 0 19 -1 19
0 0 -6 -4 -13 -9z"/>
<path d="M5070 4360 c0 -5 7 -7 15 -4 8 4 15 8 15 10 0 2 -7 4 -15 4 -8 0 -15
-4 -15 -10z"/>
<path d="M4396 4342 c-3 -4 4 -9 15 -9 23 -2 25 3 4 10 -8 4 -16 3 -19 -1z"/>
<path d="M4288 4323 c6 -2 18 -2 25 0 6 3 1 5 -13 5 -14 0 -19 -2 -12 -5z"/>
<path d="M2490 3692 c0 -4 30 -13 68 -19 37 -6 141 -25 232 -41 272 -49 483
-83 488 -77 3 3 1 5 -4 5 -15 0 -589 107 -669 124 -78 17 -115 20 -115 8z"/>
<path d="M3313 3543 c9 -2 25 -2 35 0 9 3 1 5 -18 5 -19 0 -27 -2 -17 -5z"/>
<path d="M3378 3533 c6 -2 18 -2 25 0 6 3 1 5 -13 5 -14 0 -19 -2 -12 -5z"/>
<path d="M3465 3519 c22 -4 51 -8 65 -7 16 0 11 3 -15 9 -22 4 -51 8 -65 7
-16 0 -11 -3 15 -9z"/>
<path d="M3583 3503 c9 -2 25 -2 35 0 9 3 1 5 -18 5 -19 0 -27 -2 -17 -5z"/>
<path d="M3648 3493 c6 -2 18 -2 25 0 6 3 1 5 -13 5 -14 0 -19 -2 -12 -5z"/>
<path d="M3718 3483 c6 -2 18 -2 25 0 6 3 1 5 -13 5 -14 0 -19 -2 -12 -5z"/>
<path d="M3793 3473 c9 -2 23 -2 30 0 6 3 -1 5 -18 5 -16 0 -22 -2 -12 -5z"/>
<path d="M3853 3463 c9 -2 25 -2 35 0 9 3 1 5 -18 5 -19 0 -27 -2 -17 -5z"/>
<path d="M3928 3453 c6 -2 18 -2 25 0 6 3 1 5 -13 5 -14 0 -19 -2 -12 -5z"/>
<path d="M4015 3439 c22 -4 51 -8 65 -7 16 0 11 3 -15 9 -22 4 -51 8 -65 7
-16 0 -11 -3 15 -9z"/>
<path d="M4128 3423 c12 -2 30 -2 40 0 9 3 -1 5 -23 4 -22 0 -30 -2 -17 -4z"/>
<path d="M4203 3413 c9 -2 23 -2 30 0 6 3 -1 5 -18 5 -16 0 -22 -2 -12 -5z"/>
<path d="M4263 3403 c9 -2 23 -2 30 0 6 3 -1 5 -18 5 -16 0 -22 -2 -12 -5z"/>
<path d="M4333 3393 c9 -2 23 -2 30 0 6 3 -1 5 -18 5 -16 0 -22 -2 -12 -5z"/>
<path d="M4405 3380 c17 -4 44 -8 60 -8 25 0 24 2 -10 9 -51 10 -92 10 -50 -1z"/>
<path d="M4570 3355 c41 -8 89 -14 105 -13 26 0 24 1 -10 8 -22 4 -69 10 -105
13 l-65 6 75 -14z"/>
<path d="M4745 3329 c51 -10 92 -10 50 1 -16 4 -43 8 -60 8 -25 0 -24 -2 10
-9z"/>
<path d="M4848 3313 c6 -2 18 -2 25 0 6 3 1 5 -13 5 -14 0 -19 -2 -12 -5z"/>
<path d="M4908 3303 c6 -2 18 -2 25 0 6 3 1 5 -13 5 -14 0 -19 -2 -12 -5z"/>
<path d="M5010 3289 c154 -29 753 -122 952 -149 125 -16 246 -33 270 -36 24
-4 41 -4 38 -1 -3 3 -165 29 -360 57 -195 28 -465 69 -600 90 -135 22 -270 41
-300 44 l-55 5 55 -10z"/>
<path d="M13481 4223 c-7 -8 -11 -16 -8 -19 2 -2 10 2 17 11 17 20 9 27 -9 8z"/>
<path d="M3198 3163 c7 -3 16 -2 19 1 4 3 -2 6 -13 5 -11 0 -14 -3 -6 -6z"/>
<path d="M3508 3143 c7 -3 16 -2 19 1 4 3 -2 6 -13 5 -11 0 -14 -3 -6 -6z"/>
<path d="M3194 3099 c23 -6 50 -6 65 -1 20 7 12 9 -39 10 -61 0 -63 -1 -26 -9z"/>
<path d="M6028 2623 c7 -3 16 -2 19 1 4 3 -2 6 -13 5 -11 0 -14 -3 -6 -6z"/>
<path d="M6098 2613 c7 -3 16 -2 19 1 4 3 -2 6 -13 5 -11 0 -14 -3 -6 -6z"/>
<path d="M6148 2603 c6 -2 18 -2 25 0 6 3 1 5 -13 5 -14 0 -19 -2 -12 -5z"/>
<path d="M10133 19833 c9 -2 23 -2 30 0 6 3 -1 5 -18 5 -16 0 -22 -2 -12 -5z"/>
<path d="M10290 19809 c252 -40 630 -117 904 -184 82 -20 150 -34 152 -32 12
12 -401 106 -821 187 -118 23 -305 50 -331 49 -11 -1 33 -10 96 -20z"/>
<path d="M8718 19773 c7 -3 16 -2 19 1 4 3 -2 6 -13 5 -11 0 -14 -3 -6 -6z"/>
<path d="M8485 19715 c-118 -31 -588 -195 -581 -202 4 -5 195 60 302 102 34
13 135 45 225 70 90 26 166 49 168 51 9 8 -26 2 -114 -21z"/>
<path d="M11375 19580 c11 -5 29 -9 40 -9 l20 0 -20 9 c-11 5 -29 9 -40 9
l-20 0 20 -9z"/>
<path d="M11515 19545 c22 -8 49 -14 60 -14 11 0 0 7 -25 15 -25 7 -52 13 -60
13 -8 -1 3 -7 25 -14z"/>
<path d="M11638 19513 c7 -3 16 -2 19 1 4 3 -2 6 -13 5 -11 0 -14 -3 -6 -6z"/>
<path d="M7800 19483 c-65 -24 -96 -42 -50 -28 51 15 145 54 130 53 -8 0 -44
-11 -80 -25z"/>
<path d="M11680 19500 c8 -5 22 -9 30 -9 10 0 8 3 -5 9 -27 12 -43 12 -25 0z"/>
<path d="M11798 19463 c7 -3 16 -2 19 1 4 3 -2 6 -13 5 -11 0 -14 -3 -6 -6z"/>
<path d="M7597 19406 c-99 -40 -131 -56 -113 -56 8 0 229 90 235 96 12 11 -24
-1 -122 -40z"/>
<path d="M11858 19443 c7 -3 16 -2 19 1 4 3 -2 6 -13 5 -11 0 -14 -3 -6 -6z"/>
<path d="M11890 19436 c0 -3 42 -18 93 -34 50 -17 101 -33 112 -37 16 -6 17
-5 5 4 -13 9 -191 71 -205 71 -3 0 -5 -2 -5 -4z"/>
<path d="M12126 19361 c-3 -5 4 -11 16 -14 29 -8 32 -4 8 11 -10 6 -21 8 -24
3z"/>
<path d="M7434 19334 c-18 -14 -18 -14 6 -3 31 14 36 19 24 19 -6 0 -19 -7
-30 -16z"/>
<path d="M6985 19123 c-178 -91 -432 -237 -460 -265 -11 -11 27 9 85 44 157
94 151 91 348 194 154 81 195 104 180 104 -2 0 -70 -35 -153 -77z"/>
<path d="M12927 19029 c7 -7 15 -10 18 -7 3 3 -2 9 -12 12 -14 6 -15 5 -6 -5z"/>
<path d="M9791 19014 c0 -11 3 -14 6 -6 3 7 2 16 -1 19 -3 4 -6 -2 -5 -13z"/>
<path d="M13000 18996 c0 -2 7 -7 16 -10 8 -3 12 -2 9 4 -6 10 -25 14 -25 6z"/>
<path d="M9802 18975 c0 -11 6 -42 13 -70 7 -27 13 -41 13 -30 0 11 -6 43 -13
70 -7 28 -13 41 -13 30z"/>
<path d="M13240 18876 c8 -7 182 -96 189 -96 14 0 -98 64 -143 82 -28 11 -49
17 -46 14z"/>
<path d="M9832 18820 c0 -14 2 -19 5 -12 2 6 2 18 0 25 -3 6 -5 1 -5 -13z"/>
<path d="M6331 18739 c-363 -242 -739 -545 -1006 -812 -63 -63 4 -10 80 63 44
43 105 99 135 125 30 26 80 69 110 96 137 122 535 422 695 524 69 44 83 55 70
54 -6 0 -43 -23 -84 -50z"/>
<path d="M9861 18664 c0 -11 3 -14 6 -6 3 7 2 16 -1 19 -3 4 -6 -2 -5 -13z"/>
<path d="M9871 18614 c0 -11 3 -14 6 -6 3 7 2 16 -1 19 -3 4 -6 -2 -5 -13z"/>
<path d="M14040 18416 c0 -2 7 -7 16 -10 8 -3 12 -2 9 4 -6 10 -25 14 -25 6z"/>
<path d="M9912 18350 c0 -19 2 -27 5 -17 2 9 2 25 0 35 -3 9 -5 1 -5 -18z"/>
<path d="M14111 18367 c2 -1 13 -9 24 -17 19 -14 19 -14 6 3 -7 9 -18 17 -24
17 -6 0 -8 -1 -6 -3z"/>
<path d="M14194 18311 c20 -22 26 -25 26 -13 0 4 -10 13 -22 21 -23 14 -23 14
-4 -8z"/>
<path d="M14230 18286 c0 -2 25 -20 56 -40 31 -21 53 -33 50 -27 -7 10 -93 71
-102 71 -2 0 -4 -2 -4 -4z"/>
<path d="M14350 18206 c0 -2 8 -10 18 -17 15 -13 16 -12 3 4 -13 16 -21 21
-21 13z"/>
<path d="M17205 3230 c-4 -30 -10 -66 -11 -79 -2 -13 -9 -28 -16 -32 -7 -4 -9
-11 -5 -16 5 -4 17 3 27 17 23 29 44 84 30 75 -6 -4 -10 0 -10 8 0 8 7 17 15
21 19 7 20 26 1 26 -8 0 -16 8 -18 18 -2 9 -8 -8 -13 -38z"/>
<path d="M17170 3080 c0 -5 5 -10 11 -10 5 0 7 5 4 10 -3 6 -8 10 -11 10 -2 0
-4 -4 -4 -10z"/>
<path d="M12858 2453 c6 -2 18 -2 25 0 6 3 1 5 -13 5 -14 0 -19 -2 -12 -5z"/>
<path d="M7390 1182 c0 -5 7 -15 15 -22 8 -7 15 -9 15 -6 0 4 -7 14 -15 22 -8
9 -15 11 -15 6z"/>
<path d="M7365 1170 c3 -5 8 -10 11 -10 2 0 4 5 4 10 0 6 -5 10 -11 10 -5 0
-7 -4 -4 -10z"/>
<path d="M7485 750 c-3 -5 -1 -10 4 -10 6 0 11 5 11 10 0 6 -2 10 -4 10 -3 0
-8 -4 -11 -10z"/>
<path d="M6878 703 c6 -2 18 -2 25 0 6 3 1 5 -13 5 -14 0 -19 -2 -12 -5z"/>
</g>
</svg>
